<?xml version="1.0" encoding="utf-8"?>
<!-- Generator: Adobe Illustrator 25.0.0, SVG Export Plug-In . SVG Version: 6.00 Build 0)  -->
<svg version="1.1" id="Layer_1" xmlns="http://www.w3.org/2000/svg" xmlns:xlink="http://www.w3.org/1999/xlink" x="0px" y="0px"
	 viewBox="0 0 24 24" style="enable-background:new 0 0 24 24;" xml:space="preserve">
<style type="text/css">
	.st0{fill:#BC9B6A;}
</style>
<path class="st0" d="M23.9,4.1c-0.4-0.8-2,0.4-2.6,0.6c-0.1,0.1-0.1,0.1-0.2,0C16.5,1.8,9,4.1,5.7,8.3C3.3,11,4,14.9,8,14.3
	c3.8-0.7,6.7-3.8,7.8-7.5c0.1-0.2,0.1-0.3,0.1-0.5l0-0.2l-0.1-0.1c-0.1-0.1-0.2-0.2-0.4-0.2c-0.2,0-0.5,0-0.7,0.5
	c-1.2,3.4-3.7,6.4-7.3,7c-0.6,0-1-0.1-1.4-0.3c-0.9-0.6-0.5-1.8-0.2-2.7c2.3-4.3,8.6-6.6,13.3-5.1c0.4,0.1,0.7,0.3,1,0.5
	c-3.2,2.1-5.9,5.4-8.2,8.4c-2.2,3.2-6.3,6.7-10.3,4.8c-0.3-0.2-0.4-0.4-0.4-0.6c0-0.2,0.1-0.2,0.1-0.2c0,0,0.1,0,0.2,0.1
	c0.3,0.2,0.7,0.3,1,0.2c0.3-0.1,0.6-0.4,0.7-0.8c0.1-0.5-0.1-1-0.5-1.2c-1.3-0.6-3,0.9-2.7,2.3c0.3,1.3,1.8,1.8,3.1,1.9
	c0.9,0,1.8,0,2.6-0.2c4.7-0.6,7.5-4.3,9.9-8.1l0-0.1c0,0.2,0.1,0.5,0.4,0.6c0.2,0.1,0.4,0.2,0.6,0.2c0.3,0,0.7,0,1.1,0
	c2.4,1.7-2.7,6.9-4.8,6.2c-0.3-0.1-0.3-0.2-0.3-0.4c0.5-1.6,2.4-2.2,3.9-2.6c0.4-0.1,1-0.2,0.9-0.7c0-0.3-0.3-0.5-0.6-0.5
	c-0.1,0-0.1,0-0.2,0c-2.2,0.6-4.1,1.2-5,3.3c-0.3,0.9,0.2,1.9,1.2,2c3.8,0.7,9.6-4,6.5-7.8c3-0.6,5-4.1,3-6.7
	c-0.1-0.1-0.1-0.1-0.1-0.2c0.2-0.1,0.5-0.3,0.8-0.4c0.2-0.1,0.4-0.2,0.6-0.2c0.2-0.1,0.3-0.2,0.4-0.3C24,4.4,24,4.2,23.9,4.1z
	 M21.4,8c-0.5,1.8-1.5,3-3.2,3.6c-0.1,0-0.2,0.1-0.3,0c-0.2-0.1-0.5-0.1-0.7-0.1c-0.3,0-0.7-0.1-1,0.1c0,0-0.1,0-0.1,0
	c1.5-2.3,3-3.8,5-5.3C21.4,6.8,21.6,7.4,21.4,8z"/>
</svg>
