<?xml version="1.0" encoding="utf-8"?>
<!-- Generator: Adobe Illustrator 24.0.2, SVG Export Plug-In . SVG Version: 6.00 Build 0)  -->
<svg version="1.1" id="Layer_1" xmlns="http://www.w3.org/2000/svg" xmlns:xlink="http://www.w3.org/1999/xlink" x="0px" y="0px"
	 viewBox="0 0 1769.3 2086.2" style="enable-background:new 0 0 1769.3 2086.2;" xml:space="preserve">
<style type="text/css">
	.st0{fill:#BC9C6B;}
	.st1{fill:#BC9B6A;}
	.st2{fill:#BC9B6B;}
	.st3{fill:#FFFFFF;}
</style>
<path class="st0" d="M906.4,1606.7c275.2,0,550.5,0,825.7,0c12.3,0,10.7-1.6,10.8,10.7c0.1,6.2,0.1,12.5,0,18.7
	c-0.1,5.2-0.2,5.2-5.6,5.4c-1.5,0-3,0-4.5,0c-551.4,0-1102.9,0-1654.3,0c-11.2,0-10,1.4-10-9.9c-0.1-6.5-0.1-13,0-19.5
	c0.1-5.2,0.2-5.2,5.6-5.4c2.2-0.1,4.5,0,6.7,0C356,1606.7,631.2,1606.7,906.4,1606.7z"/>
<g>
	<path class="st1" d="M1028.5,974c-1.3,3.5-3.9,4.3-5.8,5.7c-24.6,18-49.2,35.9-73.9,53.8c-5.4,3.9-5.4,4-3.3,10.3
		c9.3,28.5,18.6,56.9,27.8,85.4c0.8,2.5,2.7,4.9,1.3,7.9c-3.2-0.5-5.3-2.8-7.6-4.6c-23.7-17.1-47.3-34.3-70.9-51.5
		c-7.4-5.4-6.3-4.8-12.7-0.1c-24.6,17.9-49.3,35.8-73.9,53.7c-1.7,1.3-3.2,3-6.3,3.3c4.2-13,8.3-25.5,12.3-38
		c6.2-19,12.2-38,18.7-56.9c1.5-4.3,0.6-6.6-3-9.2c-24.9-17.9-49.7-36.1-74.5-54.2c-1.9-1.4-4.2-2.4-5.9-5.7c3.2,0,5.6,0,8,0
		c30.2,0,60.4,0,90.6,0c7.1,0,7.1,0,9.3-6.7c9.4-28.9,18.8-57.9,28.2-86.9c0.7-2.1,1.4-4.1,2.3-6.6c2.7,2.3,2.9,5.1,3.7,7.6
		c9.3,28.5,18.6,56.9,27.8,85.4c2.8,8.7,2.6,7.1,9.8,7.2C962.8,974,995.3,974,1028.5,974z"/>
	<path class="st1" d="M550.2,1035.7c3,0,5.4,0,7.8,0c20.7,0,41.5,0,62.2,0c6.7,0,6.7,0,8.8-6.4c6.5-19.9,13-39.9,19.5-59.8
		c0.7-2.1,1.5-4.2,2.2-6.5c2.5,2.5,2.8,5.6,3.7,8.4c6.1,18.5,12,37,18.1,55.5c3.2,9.9,1.5,8.7,12.4,8.8c19.7,0.1,39.5,0,59.2,0
		c2.4,0,4.8,0,7.5,0c-0.9,3.4-3.2,4.1-4.9,5.4c-16.7,12.2-33.5,24.4-50.3,36.6c-6.1,4.4-6,4.4-3.7,11.5
		c6.5,19.9,12.9,39.9,19.4,59.8c0.6,1.9,1.7,3.6,1.2,5.9c-2.7-0.3-4.4-2.3-6.3-3.7c-17-12.3-33.9-24.7-50.9-37
		c-4.9-3.6-5-3.6-10.1,0.2c-17,12.3-33.9,24.7-50.9,37c-1.8,1.3-3.3,3.1-5.8,3.3c-0.8-2.9,0.9-5.4,1.7-7.9
		c6.3-19.7,12.7-39.4,19.1-59.2c1.8-5.6,1.8-5.7-3-9.1c-16.8-12.2-33.6-24.4-50.3-36.6C554.4,1040.4,551.8,1039.3,550.2,1035.7z"/>
	<path class="st1" d="M1185.3,1154.8c-2.7-0.3-4.3-2.3-6.3-3.7c-17-12.3-33.9-24.6-50.9-37c-5-3.6-5-3.6-10.1,0.1
		c-17,12.3-33.9,24.7-50.9,37c-1.8,1.3-3.3,3-5.9,3.5c-1-2.9,0.8-5.3,1.5-7.8c6.2-19.2,12.5-38.4,18.7-57.6
		c2.4-7.3,2.3-7.2-3.6-11.5c-16.8-12.2-33.5-24.3-50.3-36.5c-1.8-1.3-3.9-2.2-4.9-4.6c1.6-1.8,3.7-0.9,5.5-0.9
		c21.2-0.1,42.4,0,63.6-0.1c8.5,0,6.9,0.2,9.2-6.8c7.2-21.8,14.2-43.6,21.4-65.8c2,1.4,2.3,3.3,2.8,5.1
		c6.5,20.2,13.1,40.3,19.6,60.5c2.3,7,2.3,7.1,9.9,7.1c20.5,0,40.9,0,61.4,0c2.4,0,4.8-0.5,7.2,0.6c-0.9,2.9-3.2,3.6-4.9,4.8
		c-16.9,12.4-33.9,24.6-50.9,37c-5.4,3.9-5.4,4-3.3,10.4c6.5,20.2,13.1,40.3,19.7,60.5C1184.7,1150.8,1185.7,1152.6,1185.3,1154.8z"
		/>
	<path class="st1" d="M345.8,1039.9c10.7,0,21.3,0,32,0c8.2,0,16.5-0.3,24.7,0.1c4.3,0.2,6.1-1.5,7.4-5.4
		c5-15.9,10.2-31.8,15.4-47.7c0.7-2.1,1.4-4.1,2.3-6.6c2.6,2.3,2.8,5.2,3.6,7.7c5.1,15.4,10.2,30.8,15,46.3c1.3,4.3,3.3,5.8,7.9,5.8
		c16.2-0.3,32.4-0.1,48.7-0.1c2.4,0,4.8,0,8,0c-1.7,3.3-4,4.5-5.9,5.9c-12.7,9.2-25.5,18.4-38.2,27.7c-6.2,4.5-6.2,4.5-3.9,11.6
		c5.1,15.7,10.2,31.3,15.2,47c0.6,1.8,1.9,3.6,0.6,6.1c-6.1-4.4-12.2-8.7-18.2-13.1c-9.5-6.9-19-13.7-28.4-20.8
		c-2.9-2.2-4.9-2.1-7.8,0.1c-13.2,9.8-26.6,19.4-40,29c-2,1.4-3.6,3.6-6.4,3.6c-1.3-2.7,0.3-4.9,1-7.2c4.9-15.2,9.9-30.3,14.8-45.5
		c2-6.3,2-6.3-3.5-10.3c-12.5-9.1-25.1-18.1-37.6-27.2c-2.4-1.7-4.7-3.6-7.1-5.4C345.6,1040.9,345.7,1040.4,345.8,1039.9z"/>
	<path class="st1" d="M1434.2,1041.3c-9.8,7.1-19.6,14.3-29.5,21.4c-5.5,4-10.9,7.9-16.4,11.9c-4.6,3.4-4.7,3.5-2.8,9.3
		c4.8,15,9.8,29.9,14.6,44.9c0.8,2.5,2.4,5,1.8,8.3c-3,0-4.8-2.3-6.8-3.7c-13.2-9.5-26.4-18.9-39.3-28.7c-3.5-2.7-5.6-2.5-9,0
		c-13.4,10-27,19.7-40.6,29.5c-1.6,1.1-2.9,2.8-5.2,2.8c-1.6-2.6,0.3-4.8,1-7c4.9-15.5,9.9-30.9,14.9-46.3c1.8-5.6,1.8-5.7-3-9.2
		c-12.1-8.8-24.3-17.6-36.4-26.4c-3-2.2-6-4.4-9-6.6c1.1-2.5,3.1-1.5,4.6-1.5c17.2-0.1,34.5,0,51.7-0.1c6.3,0,6.3-0.1,8.3-6
		c5.1-15.7,10.2-31.3,15.2-47c0.7-2,1.4-4.1,2.4-6.7c2.5,2.6,2.8,5.4,3.6,7.9c5,15.2,9.9,30.4,14.8,45.6c2,6.3,2.1,6.3,8.8,6.3
		c18.5,0,36.9,0,55.4,0C1433.8,1040.4,1434,1040.8,1434.2,1041.3z"/>
</g>
<g>
	<path class="st1" d="M1092,339.3c3.3,4,6.1,7.4,8.8,11c22.5,29.7,21.9,64.9-1.4,93.9c-17.3,21.5-40.3,33-67,37.7
		c-2.7,0.5-5.4,0.9-8,2c0.8,2.1,2.9,2.7,4.5,3.7c14.9,9,22.3,22.7,24,39.4c2.6,24.7-4.8,46.7-21,65.2
		c-24.8,28.3-56.4,45.8-92.9,54.3c-10.7,2.5-21.8,3.2-32.7,0.5c-7.2-1.8-13.7-4.8-17.5-11.7c-3.7-6.8-3.1-14.1-1.2-21.2
		c3.6-13.4,12.6-23.2,23.1-31.5c22.8-18.1,49.2-28.2,77.3-34.3c1.5-0.3,3-0.3,4.5-0.4c2.1-0.2,3.2,0.7,3.5,2.9
		c0.3,2.1-0.5,3.4-2.5,3.9c-3.4,0.9-6.8,1.7-10.1,2.6c-20.8,5.7-41.2,12-59.1,24.7c-9.4,6.7-17.7,14.6-24.3,24.2
		c-3,4.4-5.1,9.2-5.7,14.5c-0.9,8,3.2,14.2,11.4,17.2c8.9,3.3,17.7,1.7,26.5-0.7c17.9-4.9,33.4-14.5,47.7-26
		c21.8-17.5,38.4-39.1,48.8-65.3c3.8-9.6,5.6-19.6,5.1-30c-0.6-12.7-6.8-21.6-17.8-27.5c-2.1-1.1-4.2-1-6.5-0.7
		c-7.2,0.8-14.5,0.7-21.7,0.5c-3.3-0.1-6.4-0.9-9.3-2.5c-1.8-1-3.2-2.5-3-4.8c0.1-2.3,1.6-3.6,3.6-4.4c5.5-2.3,11.3-2.1,17-1.3
		c4.7,0.6,9.4,1.6,13.9,3c4.1,1.3,7.7,0.9,11.7-0.3c41-13.2,65.4-41.6,75.5-82.7c4.1-16.6,0.3-32.3-10.5-45.9
		c-3.3-4.1-3.4-4.3-7.8-1.4c-14.7,9.9-28.2,21.5-41.4,33.3c-27.9,25-51,54.1-71.7,85.2c-18.7,28.1-37,56.4-57.8,83
		c-19.9,25.3-42.3,47.8-69.8,65.1c-26.8,16.9-56,27.1-87,32.7c-17.8,3.2-35.7,3.9-53.7,2.9c-14.8-0.9-29.1-4.2-42.2-11.5
		c-8.8-5-15.5-11.6-17.5-22.1c-1.8-9.5,0.6-18,6.3-25.4c7.5-9.7,17.6-15.4,29.8-16.9c3.6-0.5,7,0.4,10.2,1.9
		c6.1,2.9,8.6,9.2,6.7,15.7c-3.4,11.4-15.3,15.8-24.8,9c-3.5-2.5-6.8-5.4-11.5-3c-5,2.5-6.9,7.1-7.1,12.4
		c-0.4,9.1,3.9,15.9,11.3,20.7c9.4,6.1,20,9.1,30.9,10.5c50.5,6.3,94.5-8.8,133.6-40.4c23.1-18.7,42.3-41,60.4-64.3
		c24.4-31.3,48.6-62.8,74.6-92.9c33.4-38.6,70.9-72.5,113.5-100.6c1.6-1.1,3.7-1.6,4.5-4.1c-9.6-7.6-20.4-13.1-31.8-17.5
		c-14.1-5.4-28.8-7.7-43.8-9.2c-18.5-1.8-36.9-1.4-55.3,0.7c-26.7,3-52.4,9.9-77.1,20.4c-27,11.5-52.3,26-74.6,45.4
		c-18.5,16-34.3,34.2-45.1,56.4c-6.2,12.7-9.6,26.1-9,40.5c0.5,12,5.9,21.1,15.6,27.5c10.6,7,22.4,9.1,35,8.2
		c24-1.8,44.6-12.1,64.3-24.7c34.2-21.9,60.2-51.4,80.7-86.2c8.5-14.5,14.9-29.9,19.8-46c0.9-2.9,1.8-5.2,5.5-4.6
		c1.8,0.3,2.8,1,2.4,2.9c-0.8,3.4-1.7,6.8-2.7,10.1c-14.1,47.5-39.4,87.8-78.2,119c-24,19.2-51.3,31.9-81.6,37.2
		c-11.3,2-22.9,2-34.2-1c-24.5-6.3-39.9-30.4-36.1-55.5c3.4-22.5,14.1-41.4,27.7-59c21.2-27.3,48.1-47.7,78.3-64
		c30.4-16.4,62.6-27.5,96.7-32.4c35.6-5.1,71.1-5.5,106.2,3.9c14.7,3.9,28.1,10.3,40.3,19.2c4.5,3.3,7.8,3.1,12.6,0.2
		c12.2-7.4,25.1-13.4,38.5-18.3c1.9-0.7,3.8-1.7,5,1c1.1,2.5,1.7,4.6-1.9,5.8c-4.7,1.7-9.3,3.7-13.8,5.7
		C1110.5,328.5,1101.3,333,1092,339.3z"/>
	<path class="st1" d="M560,805.6c2.1-3.5,2.9-7.2,3.2-10.8c1.2-17,9.2-30.6,20.2-43.2c9-10.4,16.3-22,22-34.7c4-9,5.6-18,2.6-27.6
		c-1.1-3.6-1.7-7.3-2.4-11c-0.5-2.7-0.4-5.4,0.6-8.1c0.9-2.6,1.6-6.4,4.3-6.4c3.4,0,4.9,3.6,5.5,7c3.4,17.4,6.8,34.7,10.2,52.1
		c2.1,11,2.8,22.2,3.4,33.5c1,21.9-7.9,39.2-22.4,54.4c-3.6,3.8-7.4,7.4-11.2,11.1c-3.7,3.6-3.9,3.8,0.1,7.5
		c4.1,4,8.4,7.9,12.9,11.4c19.2,15.2,39.6,28.7,60.9,40.8c3.8,2.2,6.4,4.6,6.1,9.3c-0.2,2.6-1.2,4.2-3.9,4.6
		c-4.1,0.6-7.8,0.2-11.5-1.9c-15.1-8.4-29.4-18-43.4-28c-14-10-27.8-20.3-41.5-30.8c-3.5-2.7-6.4-3.5-10.8-2.1
		c-12.6,4.1-25.4,7.4-38.8,7.4c-14.7,0-27.3-4.9-36.4-17.1c-5.2-6.9-12.4-11.6-20-15.4c-9.4-4.6-19-8.8-28.4-13.4
		c-7.5-3.6-14.3-8.1-20-14.3c-2.4-2.6-4.2-5.6-5.8-8.7c-1.4-2.7-0.2-4.2,2.9-4.3c2.9-0.1,5.3,1.2,7.8,2.4c8,4,16,8.1,24.1,12.1
		c4.2,2.1,8.7,3.8,13.2,5.2c9.6,2.9,18.9,3.5,28.5-0.3c7.6-3,15.8-4.7,23.7-6.9c5.4-1.5,11-1.4,16.4-0.5c8.1,1.4,13.8,6.3,17.9,13.4
		C552.5,797.3,554.7,802.5,560,805.6z"/>
	<path class="st1" d="M1214.1,805.5c3.4-0.7,4.4-2.4,5.5-4.1c1.7-2.5,3.4-5,4.8-7.6c7.9-14.5,19.1-16.9,33.6-14.3
		c8.3,1.5,16.6,3.8,24.4,6.9c11.5,4.5,22.5,3.1,33.5-1c11-4.1,21.2-10.1,31.7-15.2c2.7-1.3,5.3-2.9,8.4-3.1c3.7-0.2,5,1.8,3.3,5.1
		c-3.2,6-7.8,11-13.4,14.9c-6.8,4.7-14,8.6-21.6,11.8c-7.6,3.2-15,6.9-22.2,10.7c-6.2,3.3-12,7.2-16.3,13
		c-11.6,15.6-27.7,19.3-45.9,17.2c-10.2-1.2-20.2-3.6-29.8-7c-4.4-1.5-7.4-0.6-10.8,2.1c-19.1,15-38.5,29.4-58.7,42.7
		c-8.6,5.6-17.2,11.2-26.1,16.1c-2.7,1.5-5.3,2.7-8.5,2.2c-2.7-0.4-5.6-0.1-6.9-3.3c-1.1-2.7,0.5-7,3.5-9.2c2.4-1.7,5.1-3.1,7.7-4.6
		c21.3-12.5,41.9-26.3,61-42c3.3-2.7,6.2-5.8,9.3-8.7c1.9-1.7,1.8-3.2,0-5c-4.2-3.9-8.4-7.9-12.3-12.1c-10.3-11.1-19.5-23-21.7-38.6
		c-1.7-12.1-1.5-24.4,0.2-36.6c2.6-18.5,6.8-36.8,10.5-55.1c0.4-2.2,0.7-4.4,1.1-6.6c0.2-1.5,0.2-3,0.6-4.4c0.9-2.6,2.3-5.8,5.1-5.9
		c3.2-0.2,3.8,3.4,4.6,5.9c1.7,5.5,0.9,11-0.8,16.2c-4.9,14.5-0.9,27.4,6.2,40c7,12.5,15.5,24,24.7,34.7
		c7.2,8.4,10.5,17.8,11.9,28.5C1211.4,794.6,1212.9,799.8,1214.1,805.5z"/>
	<path class="st1" d="M608.1,108.1c5.4,0.2,10.3,0.5,15.3,1.2c8.4,1.2,16.4-0.3,23.8-4.5c10.1-5.6,18.7-13.3,27.7-20.5
		c8.7-7,18.1-12.5,29.1-14.5c2.1-0.4,4.5-1.3,6.2,1c1.8,2.4,0.6,4.8-0.5,7c-1.5,3.1-4.1,4.8-7,6.5c-13.5,7.7-26,16.8-36.8,28
		c-13,13.4-22.4,28.7-23.6,48c-0.1,1.7-0.4,3.6-1.3,5c-8.2,12.6-17.9,23.4-34,25.2c-8.9,1-17.9,1.3-26.9,1.7
		c-4,0.2-7.9,0.6-11.9,1.5c-1.9,0.4-3.5,0.1-3.7-2.3c-1.8-17.3-5-34.7,0.2-52c4.5-15.1,15.2-24.2,29-30.2
		C598.3,107.2,603.6,108.3,608.1,108.1z"/>
	<path class="st1" d="M1213.4,158.8c-0.9,10.6-1.9,21-2.7,31.4c-0.2,3-1.5,3.9-4.3,3.4c-11.8-2-23.8-2.1-35.7-2.8
		c-7.9-0.5-15.2-2.3-21-8.2c-2.6-2.7-5.8-4.7-8.5-7.3c-4.2-4-7.8-8.7-8.3-14.7c-1.6-20-11.2-35.9-25.1-49.6
		c-10.9-10.8-23.1-19.8-36.5-27.2c-2.9-1.6-5.4-3.6-6.6-6.8c-0.9-2.2-1.3-4.4,0.3-6.4c1.5-1.9,3.7-1.1,5.6-0.8
		c11.4,2,20.9,7.7,29.9,14.7c6.9,5.4,13.7,10.9,20.7,16.1c10.3,7.7,21.7,10.5,34.6,8.1c6.8-1.3,13.9-0.9,20.9-0.5
		c3.6,0.2,6.9,1.3,9.9,3.1c14.1,8.2,23.8,19.6,25.7,36.4C1212.6,151.5,1213,155.2,1213.4,158.8z"/>
	<path class="st1" d="M1276.9,691.3c4-13.1,7-25.8,12.3-37.6c5.2-11.5,14.4-19.6,25.4-25.7c14.8-8.1,30.9-13,47.4-15.4
		c22-3.1,36.9-14.9,46.4-34.5c4-8.3,8.1-16.6,12.2-24.8c0.7-1.3,1.4-2.7,2.4-3.8c2.7-2.9,5.7-2.1,6.4,1.8c0.9,4.9,0.8,10-1,14.8
		c-3.9,10.5-8.1,20.9-14.8,30.1c-10.9,14.9-19.5,31.4-29.4,46.9c-5.1,8-11.2,15.3-16.8,22.9c-8,10.7-19.7,14.9-31.8,18.2
		c-12.5,3.5-25.2,5.9-38.3,6C1290.8,690.4,1284.5,692.2,1276.9,691.3z"/>
	<path class="st1" d="M492,691.5c-19.4-1.2-38.7-2.6-57.5-8.5c-12.6-3.9-22.5-10.8-30.5-21.4c-9.9-13.2-18.6-27.1-27.2-41.2
		c-5.8-9.6-11.9-19-18.3-28.3c-6.9-10.1-11.1-21.7-13.8-33.7c-0.6-2.7-0.2-5.5,1-8.1c1.3-2.9,3.5-3.4,5.9-1.3c1.6,1.3,2.4,3.2,3.2,5
		c4.4,8.9,8.7,18,13.3,26.8c8.6,16.7,21.4,27.9,40.5,30.9c9.6,1.5,19.1,3.7,28.3,6.6c14.6,4.7,28.6,10.5,39.4,21.9
		c5.1,5.3,9.1,11.3,11.4,18.2c3,9,5.8,18,8.5,27.1C498,691.3,497.6,691.8,492,691.5z"/>
	<path class="st1" d="M443.3,269.7c1.6-8,2.9-16.4,4.9-24.6c7.8-32.7,15.7-65.4,23.7-98.1c1.9-7.7,6.4-14,11.6-19.8
		c1.2-1.3,2.6-2.3,4.3-2.9c2-0.7,3.9-1.1,5.6,0.5c1.6,1.4,1,3.3,0.6,4.9c-1.1,3.9-2.6,7.5-4.5,11.1c-5.2,9.7-9.9,19.5-12.8,30.2
		c-3.7,13.6-2.5,26.7,2.7,39.5c4.2,10.2,9.8,19.9,17.1,28c11.2,12.4,12.8,26.4,9.2,41.8c-2.1,8.8-5.6,17-9.3,25.2
		c-2.6,5.7-4.6,11.6-7,17.3c-2.3,5.5-6.2,6.4-10.4,2.3c-1.7-1.7-3.3-3.8-4.5-5.9c-4.2-7.5-9.7-13.9-15.6-20
		c-6.8-7.1-13-14.5-14.7-24.7C444,273,443.7,271.6,443.3,269.7z"/>
	<path class="st1" d="M1267.5,266.6c0.5-9.9,3-18.8,9.8-26.8c10.4-12.3,18.8-25.9,22.2-42c1.9-9.2,1.3-18.1-1.3-27.3
		c-3-10.5-7.2-20.2-12.6-29.5c-2.1-3.7-3.6-7.7-4.7-11.8c-1-4,1-6.2,5-5.4c2.3,0.4,4.2,1.7,5.7,3.4c5.2,6.1,10,12.5,11.8,20.6
		c8.4,37.2,18.8,74,26.5,111.4c2.5,12.3,0.4,22.6-7.2,32.2c-2.8,3.5-5.7,7-8.9,10.1c-4.8,4.7-8.9,10.1-12.3,16
		c-1.7,3-3.5,6.1-6.3,8.3c-3.6,3-7.6,2.4-9.1-1.9c-4.9-14.2-12.8-27.1-16.3-41.8C1268.7,277,1267.4,271.9,1267.5,266.6z"/>
	<path class="st1" d="M1308.6,543c0.6-7.3,2-13.9,4.4-20.1c3.2-8.2,5-16.7,6.8-25.2c2.5-11.5,8.4-19.4,19.2-24.9
		c38.4-19.5,70.8-46.4,96.7-80.9c0.7-1,1.3-2.2,2.2-3c1.6-1.4,3.7-2.1,5.5-1c2,1.2,0.8,3.1,0.1,4.6c-6.9,14-12,28.9-22,41.5
		c-14.3,18-23.1,39.1-29.3,61c-3.7,13.1-11.9,20.9-24.3,25.2c-6.9,2.4-14,3.7-21,5.1c-10.6,2.2-20.6,5.7-28.8,13.3
		C1315.6,541,1312.6,542.5,1308.6,543z"/>
	<path class="st1" d="M465.5,542.5c-3.8-0.2-6.3-1.7-8.5-3.8c-8.1-7.7-18.2-11.1-28.8-13.3c-7.6-1.6-15.2-3-22.4-5.7
		c-11.6-4.4-19.3-11.9-22.9-24.5c-6.9-24.1-17.1-46.8-33.2-66.5c-2.4-2.9-4.3-6.1-5.9-9.5c-4.3-9.3-8.7-18.5-13-27.8
		c-0.5-1.1-1.3-2.3-0.2-3.4c1-1,2.3-0.6,3.5-0.5c2.3,0.2,3.4,1.8,4.6,3.5c26.6,36,60.5,63.3,100.3,83.4c6.9,3.5,11.4,8.5,13.9,15.8
		c1.2,3.6,2.4,7.1,2.9,10.8c1.8,11.6,7.3,22.2,9.2,33.8C465.5,537.3,466.3,539.6,465.5,542.5z"/>
	<path class="st1" d="M1213.6,647.9c0.4-16.6-3.9-31.2-10-45.2c-5.5-12.8-11.6-25.4-17.5-38.1c-2.6-5.4-4.9-11-6.5-16.7
		c-1.4-5.2,2-8.8,6.6-7.6c2.3,0.6,2.9,2.5,3.8,4.3c2.5,4.9,5.1,9.7,8.1,14.3c11,16.5,26,28.9,41.1,41.2c5.4,4.4,11,8.7,16.7,12.6
		c4.5,3.1,7.5,7.3,9.5,12.2c6,14.8,7,30,2.9,45.5c-2.6,9.7-6.5,18.9-11.5,27.6c-3,5.3-3.7,5.5-8.6,2.6
		c-11.7-6.7-21.3-15.7-28.1-27.4C1215.5,665.1,1211.4,656.8,1213.6,647.9z"/>
	<path class="st1" d="M504.5,651.3c-0.4-6.1,0.6-12.5,2.5-18.8c2.7-9.1,7.1-16.6,15.3-22.2c14.2-9.8,27.4-20.9,39.6-33.1
		c9.1-9.1,16.6-19.3,22.4-30.7c0.6-1.1,1.2-2.2,1.7-3.3c1.5-3.2,4.3-3.3,7-2.6c2.6,0.7,2.8,3.4,2.9,5.5c0.1,1.6-0.8,3.4-1.4,5
		c-5.1,14.6-12.4,28.3-18.8,42.4c-5.6,12.3-10.7,24.7-13.1,38.1c-0.9,5.2-1.5,10.5-0.9,15.6c1.1,8.7-1.4,16.3-5.4,23.7
		c-7.2,13.4-17.8,23.3-31,30.6c-2.8,1.5-4.6,1.2-6.1-1.6C511.1,684.7,503.9,669.4,504.5,651.3z"/>
	<path class="st1" d="M1391.9,307.3c0.4,15.8-2.3,31.3-3.9,46.9c-1.2,11.9-2.3,23.8-2,35.9c0.5,21.2-8.5,38.2-24.2,51.7
		c-9.5,8.2-20.3,14.4-32,19.1c-6.9,2.7-11.9-0.2-12.6-7.6c-2.6-26.6,4.5-49.9,23.6-69.1c5.3-5.3,10.6-10.6,16.4-15.3
		c11.1-9,16.2-21.1,18.5-34.8c2.5-15.1,1-30.4,2.7-45.6c0.2-1.5,0.2-3,0.2-4.5c-0.1-3.7,2.1-5.6,5.4-6c3.5-0.4,5.8,1.5,6.6,4.8
		c0.7,2.9,1.3,5.9,1.4,8.9C1392.1,296.8,1391.9,302,1391.9,307.3z"/>
	<path class="st1" d="M458,442c0,3.5,0.2,7,0,10.5c-0.5,8.2-5.9,11.6-13.3,8.2c-14-6.3-27.2-13.8-37.8-25.1
		c-11.3-12.1-18-26.4-17.8-43.2c0.3-21-2.8-41.8-5-62.6c-1.5-14.2-1.7-28.4-0.5-42.7c0.2-1.9,0.7-4,1.6-5.7c1.3-2.7,3.7-4.1,6.8-3.3
		c2.7,0.6,4.4,2.3,4.7,5.2c0.1,1.2,0.1,2.5,0.2,3.7c0.5,11.5,1.1,22.9,1.4,34.4c0.2,10.9,2.6,21.3,6.8,31.2
		c2.8,6.6,7.6,11.7,13,16.2c8.1,6.7,15.6,14,22.2,22.2C452.2,405.9,459.4,422.4,458,442z"/>
	<path class="st1" d="M1397.3,680.6c1.4,2.5,0.3,4.8-0.4,7.1c-3.4,11.7-11.2,20.4-19.8,28.5c-1.2,1.1-3,1.8-4.6,2.4
		c-17.4,5.7-31.8,16.4-45.9,27.5c-10.2,8-20.9,15.3-32.2,21.8c-9.6,5.6-19.8,7.8-30.9,6.3c-3.7-0.5-7.4-0.9-11.2-1
		c-3.2-0.1-4.2-1.5-4.5-4.5c-1.2-11.9,2.1-22.7,7.3-33.1c3.4-6.7,7.7-12.9,12.8-18.4c6.7-7.3,15.3-11.1,25.1-11.7
		c9-0.6,18,0.3,26.6,2.8c16.4,4.8,31.3,1.2,45.9-7c9.4-5.3,17.8-11.8,26.6-18C1393.7,682.1,1394.9,680.1,1397.3,680.6z"/>
	<path class="st1" d="M378.6,680.1c5.1,3.7,10.2,7.5,15.5,11.2c10.7,7.4,21.6,14.4,34.4,17.6c7.7,1.9,15.2,2,22.9,0
		c9.9-2.6,20-4.2,30.3-3.7c8,0.4,15.6,2.8,21.3,8.2c14.8,14,24.4,30.8,24.3,52c0,8-0.7,7.6-7.4,7.8c-4.7,0.1-9.5,0.5-14.2,1.1
		c-7.5,1-14.3-1.3-20.9-4.5c-12.6-6.2-24.1-14.2-35.1-22.7c-9.3-7.2-18.6-14.3-28.7-20.3c-5.6-3.4-12-5-17.6-8.1
		c-14.4-7.8-23.1-20-26.1-36.2c-0.1-0.4,0.2-1,0.4-1.4C377.7,680.9,377.9,680.8,378.6,680.1z"/>
	<path class="st1" d="M593.9,455.7c1.6,5.8-0.3,10.9-3.2,15.5c-2.4,3.8-5.2,7.4-8.3,10.6c-12.9,13.2-19.7,29.1-22.4,47.2
		c-1.1,7.9-2.7,15.7-4.4,23.5c-3.6,16.8-12.6,29.6-28,37.7c-9.1,4.7-18,9.7-27.9,12.4c-3.9,1-7.9,1.2-11.8,1.9
		c-6.2,1-8.5-0.9-8.2-7.2c0.6-13.8,3.2-27.2,10.5-39.3c2.1-3.4,4.2-6.8,6.7-9.9c3.5-4.6,7.5-8.5,13-10.9c13-5.9,23.2-15.3,32.1-26.3
		c10.2-12.6,19.6-25.9,30.3-38.1C579.6,464.3,586.7,458.6,593.9,455.7z"/>
	<path class="st1" d="M1181.5,455.1c6.8,3.5,12.2,8.2,17.2,13.3c9.9,10.3,18.4,21.7,27,33.1c8.5,11.2,17.3,22,29.3,29.7
		c3.3,2.2,6.8,4.3,10.5,5.8c4.8,2,8.4,5.4,11.5,9.3c11.8,15,18.3,32,17.9,51.3c-0.1,6-1.7,7.4-7.7,6.8
		c-20.6-2.1-38.2-11.4-53.6-24.5c-9.5-8.1-12.8-19.9-15.4-31.8c-2.1-9.8-3.1-19.7-5.4-29.4c-3.1-13.5-9.4-25.1-18.8-35.2
		c-4.2-4.6-8.5-9.2-11.1-15C1181,464.4,1179.6,460.2,1181.5,455.1z"/>
	<path class="st1" d="M469.2,393c-7.8-1.7-14.2-5.2-19.4-10.3c-8.2-8.1-16.2-16.3-23.9-24.9c-7.4-8.2-11-18.4-12.6-29.2
		c-1.5-9.9-1.7-19.9-0.8-29.9c1.4-14-0.8-27.8-2.9-41.7c-3.6-22.7-3-45.3,6-67c0.5-1.2,0.8-2.4,1.4-3.4c1.2-2,1.6-5.5,4.9-4.7
		c2.8,0.7,2.8,4.2,2.8,6.4c-0.1,4.7-0.9,9.4-1.7,14.1c-2.7,15.8-4.6,31.6-4.1,47.7c0.3,9.7,2.4,18.8,6.3,27.5
		c2.8,6.3,6.8,11.6,12.5,15.6c23,16.6,32.8,40.1,35.3,67.4c0.5,5.9,0.4,12-0.1,18C472.4,383.3,471.2,387.9,469.2,393z"/>
	<path class="st1" d="M481.3,542.8c-8.8-19.5-11.7-37.9-1.1-56.7c2.4-4.2,6.2-7.2,9.8-10.2c11.8-9.7,24.7-17.7,37.1-26.7
		c12.2-8.9,23-19.1,31.5-31.7c4.2-6.2,8.9-12.1,13.3-18.1c2.7-3.8,6.2-6.5,10.6-7.9c2.2-0.7,4.7-1.2,6,1.2c1.2,2.1,2.3,4.4,0.4,7
		c-3.8,5.2-7.5,10.6-11.2,15.9c-14.3,20.6-26.9,42.3-32.2,67.1c-2.8,13.1-10.1,22-20.3,29.2c-7.5,5.3-15.3,10.3-23.2,15.1
		C494.7,531.3,488,536.4,481.3,542.8z"/>
	<path class="st1" d="M1293.3,542.3c-13.5-13.5-30.8-20.3-45-31.7c-3.5-2.8-7-5.7-10-9.1c-3-3.4-5.7-7-6.7-11.5
		c-5.9-27.9-18.9-52.4-35-75.6c-3.1-4.5-6.3-9-9.6-13.4c-2.1-2.7-2.6-5.5-0.5-8.2c2.1-2.7,5-1.7,7.6-0.7c4.1,1.5,7.1,4.5,9.6,8
		c6.6,9.1,13.3,18.1,20,27c5.9,7.9,13.5,13.9,21.3,19.9c12.2,9.5,25.8,17.2,37.7,27.1c4.9,4.1,10.1,8,13.4,13.9
		C1304,502.6,1302.7,526.4,1293.3,542.3z"/>
	<path class="st1" d="M1306.2,393c-2.7-4.2-3.4-8.8-3.8-13.1c-2.5-27.7,3.4-53.1,21.6-74.8c2.7-3.3,5.6-6.3,9.2-8.7
		c15.6-10.2,21.3-25.8,22.7-43.4c1.3-16.5-1.1-32.9-3.8-49.1c-0.6-3.7-1.4-7.3-1.9-11c-0.4-2.7-0.4-5.5,0.7-8.1
		c0.5-1.1,0.4-2.6,2-2.8c1.8-0.3,2.6,1,3.4,2.3c3.2,5.7,5.3,11.8,7,18.1c5.2,19.7,4.3,39.6,1.1,59.4c-1.5,9.4-2.7,18.7-2.4,28.3
		c0.2,9.5,0.3,19,0.2,28.5c-0.2,17.7-5.8,33.2-19,45.6c-6.2,5.8-11.6,12.4-17.6,18.3C1320.2,387.6,1313.6,391.1,1306.2,393z"/>
	<path class="st1" d="M467.1,592.7c-0.4,3,1.8,7.2-0.6,9.7c-2.6,2.8-6.6-0.1-9.9-0.3c-11.2-0.6-22.4-1-33.3-4.3
		c-10.3-3.1-17.6-9.5-22.1-18.8c-7.6-15.7-18.6-29-30.7-41.3c-11.1-11.2-21.4-23.1-29.1-36.9c-3.1-5.5-5.4-11.2-6.7-17.4
		c-0.4-1.7-1.2-3.4,0.9-4.6c1.9-1.1,3.7-1.4,5.5,0.2c3.7,3.3,7.6,6.5,11.2,10c10.6,10.5,21,21.4,31.8,31.8
		c10.3,10.1,22.2,17.7,36.3,21.5c1.4,0.4,2.9,1.1,4.3,1c14.7-0.2,23.8,9,31.9,19.5c3.3,4.3,5.6,9.4,8.5,14.1
		C468,581.7,466.8,587.1,467.1,592.7z"/>
	<path class="st1" d="M1307.7,591.6c1.1-21.3,13.3-35.2,30.2-46.1c2.5-1.6,5.7-1.7,8.7-1.9c10.3-0.7,19.3-4.8,27.9-10
		c11-6.6,19.9-15.9,28.9-24.8c9.1-8.9,17.3-18.7,27.1-26.9c1.3-1.1,2.7-2.3,4-3.3c1.9-1.5,3.8-0.8,5.5,0.4c1.7,1.2,0.6,2.7,0.3,4
		c-3.1,14.9-11.5,27-21.1,38.3c-8.7,10.3-18.2,19.9-27.1,30c-6.6,7.5-12.8,15.4-16.8,24.7c-6.4,14.9-18.1,22.1-33.5,24.1
		c-10.1,1.4-20.3,2.1-30.5,3.1c-2.6,0.3-3.7-0.8-3.6-3.4C1307.8,597.1,1307.7,594.3,1307.7,591.6z"/>
	<path class="st1" d="M1181.7,655.8c0.4-15-0.6-31.8,1.8-48.4c0.3-2,0.5-3.9,1-5.9c0.4-1.8,1.2-3.5,3.3-3.5c2.6,0,4.2,1.7,4.8,4
		c0.4,1.4,0.2,3-0.1,4.4c-3.8,15.7,0.5,30.1,7.2,44.1c7.3,15.2,17.9,28.1,28.3,41.3c1.4,1.8,2.8,3.5,4.3,5.2
		c10.3,11.5,12.4,24.8,8,39.1c-3.4,11.2-6.6,22.5-13.7,32.2c-1.3,1.8-2.4,3.8-4.5,4.9c-3.9,2.1-7.1,1.3-8.2-3
		c-4.3-16.2-13.2-30.2-21.9-44.1c-9.5-15.1-13.4-30.9-11-48.4C1182,671,1181.8,664.2,1181.7,655.8z"/>
	<path class="st1" d="M595,695.3c0.8,3.9-2.1,10.3-5,16.7c-6,13.2-14.2,25.2-20.8,38.1c-3.1,6-6,12-7.9,18.6
		c-1.8,6.4-6.4,7.5-10.8,2.4c-2.8-3.2-5.3-6.8-6.9-10.6c-4.5-11.1-9.5-22-10.7-34.1c-0.9-9.9,1.5-18.6,7.7-26.5
		c11.1-14.1,23-27.7,31.7-43.6c6.8-12.3,11.8-25.3,11.7-39.8c0-4.1-1.2-7.9-1.9-11.8c-0.5-2.7,0.4-4.3,2.3-5.7
		c2.7-1.9,4.7-1.4,5.7,1.7c0.7,2.1,1.1,4.4,1.3,6.6c0.6,9,1.8,17.9,1.8,26.9C593.4,653.4,592.6,672.6,595,695.3z"/>
	<path class="st1" d="M1186.4,267.6c-9,0.5-18.1-2.1-25.6-9.3c-3.7-3.5-6.5-7.5-7-12.8c-1.6-16.3-10.9-26.8-24.8-34.1
		c-7.1-3.7-14.1-7.4-21.1-11.3c-9.2-5.2-16.3-12.4-19.9-22.5c-0.6-1.7-2.1-3.8,0-5.5c1.7-1.4,3.8-1.1,5.7-0.6c2.7,0.7,5,2.4,6.6,4.7
		c7.8,10.7,18.6,17.3,30.2,22.6c14.4,6.7,29.6,10.3,45.6,10.3c4.2,0,8.5,0.2,12.7-0.2c13.8-1.1,24.1,4.9,32,15.7
		c2.5,3.4,4.6,7.1,6.8,10.7c3.9,6.4,7.9,12.7,11.7,19.2c2,3.3,1.4,5.2-1.8,5.3c-12.1,0.2-23.5,4.1-35.2,6.3
		C1197.4,267.1,1192.5,267.6,1186.4,267.6z"/>
	<path class="st1" d="M593.2,209c25.7,0.6,49.3-5.9,70.1-21.4c3.8-2.8,7.4-5.9,10.1-9.8c2-2.9,4.6-5.3,8.1-6.3c5-1.3,7.3,1,5.7,5.9
		c-2.9,8.6-8.5,15.1-15.9,20.2c-5.8,4-12.2,6.8-18.4,10c-6.8,3.6-13.6,7.3-19.4,12.5c-6.8,6.1-11.3,13.7-11.6,22.7
		c-0.5,12.1-14.6,23.9-28,24.6c-8.5,0.4-16.9,0-25.2-2c-10.2-2.4-20.2-5.2-30.8-5.6c-3.5-0.1-4.5-1.9-2.4-5
		c7.2-10.5,12.2-22.4,20.2-32.4c7.1-8.9,16.1-13.9,27.8-13.6C586.7,209,589.9,209,593.2,209z"/>
	<path class="st1" d="M1257,250.2c-10.3-14.4-21.1-27.2-29-42.1c-3.7-7-5.1-14.5-6.3-22.2c-0.3-2.1,0.2-4,1.1-5.8
		c8.6-18.4,7.7-37.4,3.6-56.5c-3-14.1-6.9-28.1-10.3-42.1c-0.9-3.6-1.4-7.3-2.1-11c-0.5-2.5,0.1-4.5,2.7-5.4
		c2.5-0.8,3.5,1.1,4.7,2.7c7.1,9.9,11.4,21.1,14.8,32.6c3.8,12.9,6.9,26.1,12,38.6c3.6,8.6,7.5,17.2,14.5,23.4
		c7,6.3,9,14.1,9.5,22.7c1.2,18-2.2,35.3-8.8,51.9C1261.6,241.1,1260.4,245.5,1257,250.2z"/>
	<path class="st1" d="M517,249c-10.9-22.9-17.1-46.6-12.8-72.3c0.8-4.9,2.8-8.8,6.5-12.3c7.8-7.3,12.6-16.7,16.5-26.5
		c5.6-13.9,9-28.6,13.5-42.8c3-9.6,7-18.7,12.7-27c1.3-1.9,2.5-4.1,5.3-3c3,1.2,2.5,3.5,2.1,6.2c-2.3,17.1-8.1,33.4-11.9,50.2
		c-3.6,15.8-5.1,31.5-0.8,47.4c0.5,1.7,0.8,3.5,1.6,5c5.2,8.9,3.2,17.8,0.3,26.8c-2.4,7.5-6.5,14-11,20.4
		c-6.1,8.8-12.5,17.5-18.8,26.2C519.8,248.1,519.2,249,517,249z"/>
	<path class="st1" d="M1309.4,455.6c-0.1,2.3,0.3,5.3-0.6,8.2c-1.6,5.5-2.9,6.1-8.6,5.3c-21.9-3.1-38.8-14.8-53.4-30.5
		c-13.1-14.1-24.1-29.9-35.4-45.4c-6.1-8.3-13.5-14.6-22.6-19c-4.7-2.3-9.2-4.9-12.8-8.9c-2.2-2.5-3.5-5.4-4-8.7
		c-0.4-2.7,0.5-5.1,3-6.4c2.1-1.1,4.4-0.7,6.3,0.8c3.5,2.8,6.8,6,9.2,9.8c10.2,16.1,25.8,24.6,42.8,31.1
		c13.2,5.1,26.9,9.2,39.9,14.8c6.7,2.9,12.8,6.6,18.9,10.5c12,7.7,16.4,19.6,17.5,33.1C1309.5,452,1309.4,453.5,1309.4,455.6z"/>
	<path class="st1" d="M465.6,454c-0.2-5.6,0.6-11,2.2-16.2c2.9-9.8,9.4-16.7,17.9-22.2c12.3-7.9,25.8-13,39.5-17.6
		c13.5-4.5,26.9-9.2,39-16.9c7-4.5,13.4-9.6,17.9-16.7c3-4.7,6.9-8.5,10.8-12.4c2.1-2.1,4.7-3.2,7.5-1.6c3,1.7,3.5,4.5,2.4,7.8
		c-1,3.2-2.4,6-4.8,8.3c-2.5,2.5-5.3,4.6-8.5,6c-12.8,5.6-22,14.9-29.9,26.2c-12.8,18.1-25.9,36.1-42.8,50.9
		c-12.6,11-27.1,17.5-43.5,20c-3.8,0.6-5.5-1.4-6.7-4.5C465.1,461.5,465.9,457.7,465.6,454z"/>
	<path class="st1" d="M488.2,396.2c-8.3,0.2-9.2-0.7-8.8-7.6c0.3-4.3,1.4-8.4,2.8-12.4c2.4-6.6,4.7-13.2,7.4-19.6
		c2.2-5.2,6.5-8.7,11.3-11.6c7.2-4.3,15.1-6.4,23.4-7.2c9.9-1,19.8-2,29.7-3c9.9-1.1,18.8-4.9,26.6-11c10.5-8.1,20.9-16.2,31.4-24.3
		c5.2-4,9-4.4,11.3-1.7c1.9,2.2,0.3,6.1-4.1,10.2c-4.6,4.3-9.6,7.8-14.9,11.2c-22.2,13.9-41.4,31.3-57.5,51.9
		c-7.6,9.7-17.1,15.7-28.6,19.3C508.1,393.8,497.5,395,488.2,396.2z"/>
	<path class="st1" d="M1286.7,396.2c-14.9-1.8-30.9-3.8-45.3-12.4c-3.9-2.3-7.2-5.1-10.1-8.7c-17.9-22.4-38.2-42.2-62.9-57
		c-5.2-3.1-9.7-7-14-11.1c-3.7-3.6-4.7-6.9-2.9-9c2.1-2.5,5.7-2.2,10,1c9.3,7.1,18.9,13.9,27.8,21.5c12.4,10.6,26.8,14.8,42.6,15.9
		c9,0.6,17.9,1.3,26.7,2.9c6.7,1.3,12.8,4.1,18.4,7.9c3.1,2.1,6.1,4.7,7.5,8.2c4.2,10.4,9.1,20.5,10.6,31.8c0,0.2,0.1,0.5,0.1,0.7
		C1296.2,395.1,1295,396.4,1286.7,396.2z"/>
	<path class="st1" d="M640.6,248.9c1.2,3.4-0.6,5.9-2.3,8.3c-5.5,7.4-11.7,14.2-19.6,19.3c-13.6,8.8-27.4,17.4-39.8,27.8
		c-2.7,2.2-5.6,4.3-7.8,7c-8.2,10.2-19.3,14.2-31.6,16.8c-11.1,2.3-22.2,2.6-33.4,2.8c-2.9,0-5.1-0.6-4.2-4.2
		c3.3-12.8,5.7-25.8,12.8-37.3c7.9-12.6,16.3-16.2,31.7-13.8c10.3,1.6,20.5,3.8,31,4.4c13.9,0.8,25.3-4.1,35.4-13
		c5.8-5.1,11.5-10.3,18.1-14.4C633.9,250.7,636.8,248.8,640.6,248.9z"/>
	<path class="st1" d="M1134.5,248.6c9.6,2.2,16,8.7,22.9,14.2c3.5,2.8,6.8,5.8,10.4,8.6c12.7,9.9,27.4,9.6,42.2,7.4
		c9.6-1.4,19-3.7,28.8-3.8c5.9,0,10.6,2,14.7,6c7,6.8,11.3,15.2,14,24.4c2,6.7,3.9,13.4,5.6,20.2c1.1,4.2,0.4,5.1-3.6,5.2
		c-16,0.4-31.9-1.1-47.2-6.3c-4-1.3-8.1-2.9-11.1-6c-15.3-16.5-33.9-28.5-52.6-40.4c-8.5-5.4-15.7-12.2-21.6-20.4
		C1135.3,255.3,1133.6,252.8,1134.5,248.6z"/>
</g>
<g>
	<path class="st1" d="M570.2,2004.3c-0.7-0.3-1.4-0.6-2.1-0.9c-7-2.7-13.9-5.6-21-8c-4.9-1.7-8-4.9-9.8-9.5
		c-3.2-8.2-5.5-16.7-5.5-25.5c-0.1-62.7-0.1-125.5,0-188.2c0-14.2,6.6-23.4,19.9-28.6c4.9-1.9,9.8-3.6,14.7-5.6
		c2.6-1.1,7.2-0.9,6.6-4.6c-0.7-3.7-5.1-2.1-7.8-2.1c-36.5-0.1-72.9-0.1-109.4-0.1c-1.8,0-3.5,0-5.2,0.1c-1.8,0.1-3.6,0.6-3.9,2.7
		c-0.3,2,1.2,3.2,2.8,4c1.6,0.8,3.2,1.3,4.9,1.9c8,2.9,15.8,6.2,23.9,8.7c7.1,2.2,10.6,7.1,12.5,13.7c1,3.6,1.6,7.3,1.6,11.1
		c0,23.8,0,47.5,0,71.2c0,6.8-0.1,6.9-7.2,6.9c-45.9,0-91.9,0-137.9,0c-7,0-7.1-0.1-7.1-7c0-21.8-0.1-43.5,0-65.2
		c0-4.5,0.4-9,1.1-13.4c1.4-8.6,5.1-15.3,14.2-18.4c7.5-2.6,14.7-6.2,22-9.4c1.7-0.8,4.3-1.2,3.8-3.9c-0.6-2.7-3-3-5.3-3
		c-1,0-2,0-3,0c-36.2,0-72.4,0-108.6,0c-1.8,0-3.5,0-5.2,0.3c-1.5,0.3-2.7,1.3-3,2.9c-0.4,1.9,0.2,3.5,2.1,4.3
		c1.6,0.7,3.2,1.3,4.8,2c8.6,3.4,17.1,6.9,25.8,10.1c7.5,2.8,10.9,7.4,10.7,15.8c-0.5,20.7-0.2,41.5-0.2,62.2
		c0,50.5-0.1,101,0.1,151.5c0,6-1.2,9.4-7.4,11.7c-9.8,3.5-19.3,8.2-28.9,12.5c-2.6,1.2-5.3,2.7-4.9,5.9c0.5,3.8,4,3,6.6,3.1
		c0.5,0,1,0,1.5,0c36.7,0,73.4,0,110.1,0c1.5,0,3,0,4.5-0.1c1.9-0.2,3.3-1.1,3.6-3.1c0.3-1.8,0-3.6-1.6-4.7
		c-1.5-0.9-3.1-1.5-4.8-2.1c-8-2.8-16-5.7-24-8.4c-8-2.6-12.3-8.1-13.5-16.3c-0.4-2.7-0.6-5.5-0.7-8.2c0-26.3,0-52.5,0-78.7
		c0-1.3,0.1-2.5,0-3.8c-0.2-3.6,1.7-4.9,5-4.7c1.5,0.1,3,0,4.5,0h65.9c23.2,0,46.5,0,69.7,0c6.7,0,6.9,0.2,6.9,6.6
		c0,23.5,0.3,47-0.1,70.5c-0.1,9.2-1,18.4-5.1,27.1c-2,4.1-4.6,6.8-9,8.2c-6.6,2.1-13.1,4.8-19.7,7c-3,1-5.5,2.4-7.3,4.9
		c-1.8,2.4-0.8,5,2.2,5.6c1.7,0.3,3.5,0.2,5.2,0.2c12,0,24,0,36,0c24.7,0,49.4,0,74.2,0c3.1,0,7.3,0.9,7.8-3.7
		C576.8,2005.9,572.8,2005.6,570.2,2004.3z M467.2,2008.5c1.4-1.8,3.5-1.9,5.2-2.6c10.8-3.8,21.6-7.8,32.5-11.3
		c4.3-1.4,5.8-3.5,5.7-8c-0.2-19.5-0.1-39-0.1-58.5v-57.3c-2.3-1.8-3.8-0.3-5.3,0.3c-9.1,3.1-18.3,4.6-27.9,4.6
		c-43.7-0.2-87.4-0.1-131.1-0.1c-1.8,0-3.5,0-5.3,0c-5.6,0.1-5.8,0.2-5.8,5.9c0,32.5,0,65,0,97.5c0,1.7,0.1,3.5,0.3,5.2
		c1,6.5,3.5,11.4,10.8,13.5c9,2.6,17.5,6.6,26.1,11h-96.8c-0.1-0.3-0.2-0.5-0.3-0.8c5.1-1.7,10.1-3.5,15.2-5.2
		c8-2.7,16-5.6,24.1-8.2c3.1-1,4.6-2.6,4.3-5.9c-0.2-1.5,0-3,0-4.5v-224.2c0-1.3-0.1-2.5,0-3.8c0.5-3.9-1.3-5.8-5-6.9
		c-11.5-3.3-22.9-6.8-34.4-10.3c-2.3-0.7-4.6-1.5-6.9-2.2c0.1-0.2,0.2-0.5,0.3-0.7h92.4c0.1,0.3,0.2,0.7,0.3,1
		c-4.7,2.1-9.2,4.6-14.1,6.1c-11.7,3.6-15.8,12.2-16.2,23.4c-0.3,8.7-0.1,17.5-0.1,26.3c0,20,0,40,0,60c0,6.6,0.1,6.6,6.5,7.1
		c2.2,0.2,4.5,0.1,6.7,0.1c42.5,0,84.9,0,127.4,0c11.2,0,22.5-0.2,33.3,2.7c2-1.8,1.3-3.9,1.3-5.8c0-33,0-66,0-99
		c0-6.7,0-6.7-6.4-8.7c-11.2-3.5-22.4-6.8-33.7-10.2c-2.1-0.6-4.2-1.3-6.1-2.8h91.4c-3.9,1.7-6.5,2.9-9.1,4
		c-13.7,5.7-20.7,15.6-20.7,30.7c0.1,63.2,0,126.5,0.1,189.7c0,9.3,1.3,18.4,5.9,26.8c2.7,5,6.2,8.9,11.6,11.1
		c6.6,2.8,13.1,6,19.9,9.2C557.6,2009.3,483.2,2009.9,467.2,2008.5z"/>
	<path class="st2" d="M1357.5,1944c-1.1-2.7-3.3-3.1-5-0.7c-0.9,1.2-1.3,2.7-1.9,4c-3.1,6.8-6.2,13.6-9.2,20.5
		c-1.9,4.3-4.9,7.4-9.1,9.6c-3.6,1.8-7.2,3.5-11,4.7c-14,4.4-28.3,6.1-42.8,5.3c-7.4-0.4-14.9-0.7-22.3-2.6
		c-8.6-2.3-13.8-7.8-15.6-16.4c-0.8-3.6-1.6-7.3-1.6-11.1c0.1-23.2-0.1-46.5,0-69.7c0-5.8,0.1-6,5.7-6c17.2-0.1,34.5,0,51.7,0
		c5.4,0,9.7,2.1,13.3,5.8c3,3.1,5.3,6.7,7.1,10.5c2.6,5.4,4.8,11,7.6,16.3c1.5,2.8,1.6,8.3,5.9,7.3c3.6-0.8,1.8-5.6,1.9-8.7
		c0.1-24.8,0.1-49.5,0.1-74.2v-8c-6.5,2.3-10.3,6.3-14,10.2c-7.6,8.2-17.2,11.9-28.1,12.1c-15,0.3-30,0.2-44.9,0.1
		c-6.1,0-6.2-0.1-6.2-6.2c0-21.8,0-43.5,0-65.2c0-6.8,0.1-13.5,0-20.3c-0.1-3.1,1-4.5,4.3-4.5c22.2,0.2,44.4,0.1,66.7,0.4
		c9,0.1,15.8,4.1,19.4,12.7c3.3,7.8,6.6,15.6,10,23.4c0.6,1.4,1.1,2.8,1.7,4.1c0.7,1.4,1.6,2.7,3.3,2.5c1.7-0.2,2.4-1.7,3.1-3
		c1.2-2.1,0.8-4.4,0.8-6.6c0-18.7,0.1-37.5,0-56.2c0-9.4,1.3-10-9.5-8.4c-18.9,2.8-37.8,2.5-56.8,2.5c-38.7,0-77.4,0-116.1,0
		c-2.5,0-5,0-7.5,0.3c-1.8,0.2-3.4,1.2-3.8,3.1c-0.5,2.1,1.1,3.2,2.7,4c2.7,1.3,5.4,2.5,8.3,3.5c4.7,1.7,9.5,3,14.2,4.7
		c13.8,5,20.3,13.2,20.3,28.6c-0.4,66.7-0.3,133.5,0.1,200.2c0.1,9.8-3.9,15.4-11.8,19.7c-7.7,4.2-16,7.1-23.9,10.8
		c-2.9,1.4-5.8,2.9-8.5,4.7c-2.4,1.6-1.5,3.4,0.5,4.7c2.3,1.4,4.8,0.9,7.3,0.9c57.2,0,114.4-0.2,171.6,0.2
		c10.7,0.1,16.8-4.9,20.8-13.8c1.7-3.7,2.3-7.7,2.3-11.7c0.1-12.5,0-25,0-37.5C1358.6,1948.3,1358.4,1946.1,1357.5,1944z
		 M1352.9,1995.5c-0.9,7.6-7.9,13.3-15.7,13.4c-11.7,0.2-23.5,0.1-35.2,0.1h-124.6c1.2-2.4,3.3-2.5,5-3.1
		c10.4-3.5,20.8-6.8,31.3-10.3c5.5-1.8,5.6-1.9,5.6-7.9c0-76.7,0-153.4,0-230.2c0-6.2-0.1-6.3-6.2-8.2c-11.4-3.5-22.9-6.9-34.4-10.4
		c-2-0.6-4.2-1-6.9-3.3h9.3c37,0,73.9-0.1,110.9,0.1c11.6,0.1,22.9-0.8,34.1-3.8c3.2-0.8,6.4-1,9.7-0.5c4.9,0.7,7,3,7,8
		c0.1,12.7,0,25.5,0,38.2c-0.4,0.1-0.9,0.2-1.4,0.3c-3.3-10.8-6.7-21.7-10.4-33.5c-10.6,7.8-22.4,6.6-34.1,6.6
		c-18.7,0-37.5,0-56.2,0c-7.1,0-7.2,0.1-7.2,7c-0.1,31.2-0.1,62.5,0,93.7c0,6.8,0.1,6.9,7.3,6.9c18.7,0,37.5,0.1,56.2,0
		c7.2-0.1,13.9,1.2,20.2,6c4.1-7.2,5.5-15.3,10-22.1v61.5c-2.8-4.1-2.9-8.7-4-12.9c-1.5-5.5-2.8-11.1-4.1-16.7
		c-0.6-2.6-1.6-4.3-4.6-2.9c-9.7,4.5-20,3.5-30.2,3.5c-15,0-30,0-44.9,0c-5.7,0-5.8,0.2-5.8,5.9c0,25.2-0.2,50.5,0.1,75.7
		c0.1,7.9,0.8,15.9,2.7,23.8c1.9,7.6,6.4,12,14.2,13.4c7.9,1.4,15.8,2.3,23.8,2.5c17,0.4,33.9,0.6,50.8-1.3c2-0.2,4.1-0.3,5.9-1
		c4-1.5,7.1-1.2,9.2,4.6c4.3-12.7,8-23.9,11.8-35.1C1353.4,1974.5,1354.1,1985.1,1352.9,1995.5z"/>
	<path class="st2" d="M1138.9,1727.9c0-1.5,0.1-3-0.2-4.5c-0.7-3.3-2.2-4.1-5.3-2.8c-1.6,0.7-3.2,1.5-4.7,2.3
		c-6.2,3.2-12.5,6.3-19.6,7c-7.9,0.8-15.9,1.4-23.9,1.3c-38.7-0.1-77.4,0-116.1-0.1c-15.3,0-30.3-1.5-44.5-7.9
		c-4.7-2.1-6.1-1-6.3,4.4c0,0.8,0,1.5,0,2.3c0,24.7,0,49.5,0,74.2c0,2-0.1,4.1,0.4,6c0.5,1.7,1.8,3.1,3.7,3.3c1.8,0.1,2.3-1.6,3-2.9
		c0.7-1.3,1.2-2.8,1.7-4.1c4.6-11.6,9.6-23.1,13.8-34.8c3.3-9.2,10.3-12.6,19-12.9c14.7-0.4,29.5-0.2,44.2-0.1c5.6,0,5.7,0.1,5.7,6
		c0.1,17.2,0,34.5,0,51.7c0,48.7-0.1,97.4,0,146.2c0,8.5-2.2,16.3-5.5,23.9c-1.6,3.8-4.4,6.4-8.4,8c-9.1,3.5-18.1,7.2-27,11
		c-2.8,1.2-7.4,1.5-6.5,5.8c0.8,3.8,5,2.3,7.8,2.3c39,0.1,77.9,0.1,116.8,0.1c1.8,0,3.5-0.1,5.2-0.2c1.3-0.1,2.4-0.9,2.7-2.2
		c0.5-1.6-0.1-3.1-1.5-3.9c-1.7-1-3.6-1.7-5.4-2.5c-8.2-3.1-16.2-6.5-24.5-9.2c-7-2.3-10.5-7.1-12.1-13.9c-0.7-3.2-1.3-6.3-1.4-9.6
		c-0.3-13.2-0.8-26.5-0.9-39.7c-0.1-20.7,0-41.5,0-62.2c0-32.5,0-65,0-97.4c0-2.8,0-5.5,0.3-8.2c0.6-5.7,0.6-5.8,6.2-5.8
		c10.5-0.1,21-0.1,31.5,0c15.4,0.1,26.4,7.4,32.3,21.6c0.5,1.2,0.9,2.3,1.4,3.5c3.8,9,7.6,17.9,11.5,26.8c0.7,1.6,1.6,3.3,3.8,3
		c2.6-0.4,2.7-2.5,2.8-4.6c0-0.8,0-1.5,0-2.3C1138.9,1780.4,1138.9,1754.2,1138.9,1727.9z M1134,1790.1c-0.3,0.1-0.6,0.1-0.9,0.2
		c-3.5-14.9-6.9-29.7-10.8-46c-6.8,6.9-14,8.3-21.7,8.3c-16,0-32,0.1-48,0.2c-9.3,0-8.7-0.4-8.7,8.4v164.2c0,15,0,30,0,45
		c0,4.5,0.4,9,2,13.3c2.9,8.1,7,14.7,16.4,16.8c5.5,1.2,10.7,3.9,16.3,6c-6,1.4-90.5,1.7-100,0.2c15.1-4.4,29.1-8.5,43.2-12.5
		c7-2,7.1-2,7.1-9.6c0-77.2,0-154.5,0-231.7c0-2.4,0.5-4.9-0.5-6.9c-1.1-0.8-1.9-0.5-2.3,0c-5.8,6.2-13,7.2-21.1,6.9
		c-14.2-0.5-28.5-0.2-42.7-0.1c-11.8,0.1-20.6,4.4-25,16.3c-3,8.1-7,15.8-11.4,23.6v-65c13.8,7.9,28.7,8.5,43.6,8.5
		c39.2,0.1,78.4,0,117.6,0c9.8,0,19.4-0.9,29-3c6.1-1.4,11.7-3.9,17.7-7.3V1790.1z"/>
	<path class="st2" d="M1582,1949c0-1.7,0-3.5-0.3-5.2c-0.3-1.4-0.7-3.1-2.5-3.4c-1.7-0.3-2.9,0.8-3.8,2c-1.1,1.4-1.9,2.9-2.7,4.5
		c-4.5,8.1-9,16.1-13.4,24.3c-1.7,3.2-4,5.8-7.2,7.4c-6.7,3.4-13.7,6.2-21.4,6.2c-15,0.1-30-0.1-45,0.1c-6.1,0.1-9.8-2.8-12-8.2
		c-1.2-3-2-6.1-2.6-9.3c-1.3-7.7-1.5-15.4-1.5-23.1c0-57.5,0.1-115-0.2-172.5c0-10.9,4.9-17.9,13.7-23c5.2-3,11-4.7,16.6-6.7
		c4.9-1.7,9.9-3.5,14.8-5.3c1.3-0.5,3.1-1.2,2.5-3.1c-0.4-1.6-2-2.1-3.5-2.2c-0.8,0-1.5-0.1-2.2-0.1c-40,0-79.9,0-119.9,0
		c-2.1,0-4.9-0.7-5.6,2.3c-0.7,3,1.7,4.4,3.9,5.7c1.1,0.6,2.3,1,3.5,1.4c6.7,2.7,13.3,6,20.2,7.9c8.7,2.5,12.4,8.5,14.3,16.5
		c2.3,9.5,3.2,19.2,3.2,28.9c-0.1,54.2,0,108.5,0,162.7c0,3,0,6-0.2,9c-1.4,15.8-7.8,28.2-23.3,34.6c-3.9,1.6-7.7,3.5-11.4,5.6
		c-2.4,1.4-7,1.9-6.3,5.2c0.7,3.4,5.1,2.2,7.9,2.2c28,0.1,55.9,0,83.9,0c28,0,56-0.3,83.9,0.2c10.2,0.2,16.7-6.3,16.4-16.6
		C1581.6,1981,1582,1965,1582,1949z M1576.1,1994.7c-0.3,9.4-4.2,12.9-13.6,12.9c-49.2,0-98.4,0-147.6,0c-1.6,0-3.4,0.4-5.5-1
		c11.1-3.4,21.7-6.7,32.3-10.1c7.5-2.4,7.5-2.5,7.5-10.4c0-76.2,0-152.4,0-228.7v-0.8c0-7.2,0-7.2-6.8-9.1
		c-10.8-2.9-21.6-5.9-32.5-8.8c-1.4-0.4-2.9-0.4-3.1-2.4h90.8c-2,2.8-4.7,2.7-6.8,3.4c-5.7,1.9-11.3,4.1-16.1,7.7
		c-6.2,4.6-9.6,10.4-9.6,18.4c0.1,61,0.1,121.9,0.2,182.9c0,9.3,1.1,18.4,3.1,27.5c0.4,1.9,1,3.9,1.7,5.7c2.7,6.8,5.6,8.9,12.9,8.9
		c18.2,0.1,36.5,0.3,54.7-0.1c7.3-0.1,13.8,0.9,19.6,5.4c1.3,1,3,1.7,5.1,2.9c4.3-14.6,8.5-28.8,12.7-43c0.3,0.1,0.7,0.2,1.1,0.2
		C1576.2,1969.3,1576.5,1982,1576.1,1994.7z"/>
	<path class="st1" d="M882.6,1852.8c-6.4-47-32.8-79.5-75.2-99c-26.2-12.1-54.2-13.5-82.1-7.2c-43.3,9.8-73.3,35.8-89.7,77.2
		c-6.7,17-7.5,35-6.6,53.1c0.8,16.9,4.2,33.3,11.7,48.4c23.6,47.2,61.5,72,114.6,72.2c8.1-0.5,16-0.6,24-1.8
		c32.7-5,59.1-20.5,79.1-46.8C880,1920.4,887.3,1887.9,882.6,1852.8z M841.6,1948.5c-18.1,24.5-42.1,39.2-72.6,42.6
		c-53.2,5.9-92.5-15.9-119.6-60.9c-9.3-15.4-13-32.7-14.7-50.6c-1.8-18.5-0.5-36.6,6-53.8c14.8-39.5,42.8-64.5,84.7-72
		c34-6,65.7,0,92.8,22.8c21.2,17.9,35.3,40.5,41.9,67.5c2.7,11,3.6,22.1,3.4,32.9C863.9,1903.6,857.2,1927.5,841.6,1948.5z
		 M882.6,1852.8c-6.4-47-32.8-79.5-75.2-99c-26.2-12.1-54.2-13.5-82.1-7.2c-43.3,9.8-73.3,35.8-89.7,77.2c-6.7,17-7.5,35-6.6,53.1
		c0.8,16.9,4.2,33.3,11.7,48.4c23.6,47.2,61.5,72,114.6,72.2c8.1-0.5,16-0.6,24-1.8c32.7-5,59.1-20.5,79.1-46.8
		C880,1920.4,887.3,1887.9,882.6,1852.8z M841.6,1948.5c-18.1,24.5-42.1,39.2-72.6,42.6c-53.2,5.9-92.5-15.9-119.6-60.9
		c-9.3-15.4-13-32.7-14.7-50.6c-1.8-18.5-0.5-36.6,6-53.8c14.8-39.5,42.8-64.5,84.7-72c34-6,65.7,0,92.8,22.8
		c21.2,17.9,35.3,40.5,41.9,67.5c2.7,11,3.6,22.1,3.4,32.9C863.9,1903.6,857.2,1927.5,841.6,1948.5z M904.4,1854.2
		c-3.8-41.8-24.2-75.1-57.1-100.7c-27.7-21.6-59.5-30.7-95.1-30c-29.1-0.6-57.4,5.6-83.4,20.3c-30.5,17.3-53.4,41.6-66.6,74.4
		c-10.3,25.7-12.1,52.6-7.6,79.6c10,60.7,45.7,99.4,104,117.4c23.2,7.2,47.2,7.1,71.2,4.6c17.3-1.8,34-5.9,49.6-13.2
		C878.8,1978.6,910.5,1922.1,904.4,1854.2z M892.9,1915.6c-18.1,51.5-54.2,83.3-107.5,94.8c-29.5,6.3-58.8,4.1-86.4-8.5
		c-43.5-19.8-72.4-52.6-83-99.8c-7.2-31.8-5.1-63.5,9.2-92.9c21.2-43.5,55.4-71.1,103.9-79.5c8.4-1.5,16.9-1.4,23.5-1.7
		c40.2-0.5,73.9,11.7,102.4,37.6c23.8,21.6,38,48.5,42.5,80.4C900.8,1869.5,900.8,1893,892.9,1915.6z M807.3,1753.8
		c-26.2-12.1-54.2-13.5-82.1-7.2c-43.3,9.8-73.3,35.8-89.7,77.2c-6.7,17-7.5,35-6.6,53.1c0.8,16.9,4.2,33.3,11.7,48.4
		c23.6,47.2,61.5,72,114.6,72.2c8.1-0.5,16-0.6,24-1.8c32.7-5,59.1-20.5,79.1-46.8c21.7-28.5,29-61,24.2-96.1
		C876.2,1805.8,849.7,1773.3,807.3,1753.8z M841.6,1948.5c-18.1,24.5-42.1,39.2-72.6,42.6c-53.2,5.9-92.5-15.9-119.6-60.9
		c-9.3-15.4-13-32.7-14.7-50.6c-1.8-18.5-0.5-36.6,6-53.8c14.8-39.5,42.8-64.5,84.7-72c34-6,65.7,0,92.8,22.8
		c21.2,17.9,35.3,40.5,41.9,67.5c2.7,11,3.6,22.1,3.4,32.9C863.9,1903.6,857.2,1927.5,841.6,1948.5z"/>
	<path class="st3" d="M882.6,1852.8c-6.4-47-32.8-79.5-75.2-99c-26.2-12.1-54.2-13.5-82.1-7.2c-43.3,9.8-73.3,35.8-89.7,77.2
		c-6.7,17-7.5,35-6.6,53.1c0.8,16.9,4.2,33.3,11.7,48.4c23.6,47.2,61.5,72,114.6,72.2c8.1-0.5,16-0.6,24-1.8
		c32.7-5,59.1-20.5,79.1-46.8C880,1920.4,887.3,1887.9,882.6,1852.8z M841.6,1948.5c-18.1,24.5-42.1,39.2-72.6,42.6
		c-53.2,5.9-92.5-15.9-119.6-60.9c-9.3-15.4-13-32.7-14.7-50.6c-1.8-18.5-0.5-36.6,6-53.8c14.8-39.5,42.8-64.5,84.7-72
		c34-6,65.7,0,92.8,22.8c21.2,17.9,35.3,40.5,41.9,67.5c2.7,11,3.6,22.1,3.4,32.9C863.9,1903.6,857.2,1927.5,841.6,1948.5z"/>
	<path class="st1" d="M882.6,1852.8c-6.4-47-32.8-79.5-75.2-99c-26.2-12.1-54.2-13.5-82.1-7.2c-43.3,9.8-73.3,35.8-89.7,77.2
		c-6.7,17-7.5,35-6.6,53.1c0.8,16.9,4.2,33.3,11.7,48.4c23.6,47.2,61.5,72,114.6,72.2c8.1-0.5,16-0.6,24-1.8
		c32.7-5,59.1-20.5,79.1-46.8C880,1920.4,887.3,1887.9,882.6,1852.8z M841.6,1948.5c-18.1,24.5-42.1,39.2-72.6,42.6
		c-53.2,5.9-92.5-15.9-119.6-60.9c-9.3-15.4-13-32.7-14.7-50.6c-1.8-18.5-0.5-36.6,6-53.8c14.8-39.5,42.8-64.5,84.7-72
		c34-6,65.7,0,92.8,22.8c21.2,17.9,35.3,40.5,41.9,67.5c2.7,11,3.6,22.1,3.4,32.9C863.9,1903.6,857.2,1927.5,841.6,1948.5z"/>
</g>
<g>
	<path class="st2" d="M527.2,1306.7c-1.5-22.2-12.1-38.3-32.5-47.3c-15.4-6.8-31.8-8.9-48.4-7.5c-12.9,1.1-18.7,3.8-20.4,19.9
		c-0.3,2.5-0.3,5-0.3,7.5c0,13.8,0,27.5,0,41.2c0,12.5-0.1,25,0,37.5c0.1,4.7-2.1,10.6,1,13.8c3.4,3.5,9.5,1.1,14.4,1.3
		c14.6,0.5,28.9-0.9,42.7-5.9c9-3.3,17.5-7.4,24.8-13.6C523.2,1341.2,528.4,1325.3,527.2,1306.7z M507.1,1324.1
		c-3.5,17.6-13.9,29.5-30.3,36.3c-13.1,5.4-27,6.5-41,7.6c-3.8,0.3-4.6-1.6-4.6-4.9c0.1-15.2,0-30.5,0-45.7c0-14,0-28,0-42
		c0-3,0.1-5.9,1-8.9c1.5-4.6,4.5-7.3,9.1-7.7c20.2-1.7,38.9,1.9,53.7,17c7.8,7.9,12,17.7,12.6,28.9
		C508.2,1311.2,508.4,1317.7,507.1,1324.1z M527.2,1306.7c-1.5-22.2-12.1-38.3-32.5-47.3c-15.4-6.8-31.8-8.9-48.4-7.5
		c-12.9,1.1-18.7,3.8-20.4,19.9c-0.3,2.5-0.3,5-0.3,7.5c0,13.8,0,27.5,0,41.2c0,12.5-0.1,25,0,37.5c0.1,4.7-2.1,10.6,1,13.8
		c3.4,3.5,9.5,1.1,14.4,1.3c14.6,0.5,28.9-0.9,42.7-5.9c9-3.3,17.5-7.4,24.8-13.6C523.2,1341.2,528.4,1325.3,527.2,1306.7z
		 M507.1,1324.1c-3.5,17.6-13.9,29.5-30.3,36.3c-13.1,5.4-27,6.5-41,7.6c-3.8,0.3-4.6-1.6-4.6-4.9c0.1-15.2,0-30.5,0-45.7
		c0-14,0-28,0-42c0-3,0.1-5.9,1-8.9c1.5-4.6,4.5-7.3,9.1-7.7c20.2-1.7,38.9,1.9,53.7,17c7.8,7.9,12,17.7,12.6,28.9
		C508.2,1311.2,508.4,1317.7,507.1,1324.1z M527.2,1306.7c-1.5-22.2-12.1-38.3-32.5-47.3c-15.4-6.8-31.8-8.9-48.4-7.5
		c-12.9,1.1-18.7,3.8-20.4,19.9c-0.3,2.5-0.3,5-0.3,7.5c0,13.8,0,27.5,0,41.2c0,12.5-0.1,25,0,37.5c0.1,4.7-2.1,10.6,1,13.8
		c3.4,3.5,9.5,1.1,14.4,1.3c14.6,0.5,28.9-0.9,42.7-5.9c9-3.3,17.5-7.4,24.8-13.6C523.2,1341.2,528.4,1325.3,527.2,1306.7z
		 M507.1,1324.1c-3.5,17.6-13.9,29.5-30.3,36.3c-13.1,5.4-27,6.5-41,7.6c-3.8,0.3-4.6-1.6-4.6-4.9c0.1-15.2,0-30.5,0-45.7
		c0-14,0-28,0-42c0-3,0.1-5.9,1-8.9c1.5-4.6,4.5-7.3,9.1-7.7c20.2-1.7,38.9,1.9,53.7,17c7.8,7.9,12,17.7,12.6,28.9
		C508.2,1311.2,508.4,1317.7,507.1,1324.1z M527.2,1306.7c-1.5-22.2-12.1-38.3-32.5-47.3c-15.4-6.8-31.8-8.9-48.4-7.5
		c-12.9,1.1-18.7,3.8-20.4,19.9c-0.3,2.5-0.3,5-0.3,7.5c0,13.8,0,27.5,0,41.2c0,12.5-0.1,25,0,37.5c0.1,4.7-2.1,10.6,1,13.8
		c3.4,3.5,9.5,1.1,14.4,1.3c14.6,0.5,28.9-0.9,42.7-5.9c9-3.3,17.5-7.4,24.8-13.6C523.2,1341.2,528.4,1325.3,527.2,1306.7z
		 M507.1,1324.1c-3.5,17.6-13.9,29.5-30.3,36.3c-13.1,5.4-27,6.5-41,7.6c-3.8,0.3-4.6-1.6-4.6-4.9c0.1-15.2,0-30.5,0-45.7
		c0-14,0-28,0-42c0-3,0.1-5.9,1-8.9c1.5-4.6,4.5-7.3,9.1-7.7c20.2-1.7,38.9,1.9,53.7,17c7.8,7.9,12,17.7,12.6,28.9
		C508.2,1311.2,508.4,1317.7,507.1,1324.1z M527.2,1306.7c-1.5-22.2-12.1-38.3-32.5-47.3c-15.4-6.8-31.8-8.9-48.4-7.5
		c-12.9,1.1-18.7,3.8-20.4,19.9c-0.3,2.5-0.3,5-0.3,7.5c0,13.8,0,27.5,0,41.2c0,12.5-0.1,25,0,37.5c0.1,4.7-2.1,10.6,1,13.8
		c3.4,3.5,9.5,1.1,14.4,1.3c14.6,0.5,28.9-0.9,42.7-5.9c9-3.3,17.5-7.4,24.8-13.6C523.2,1341.2,528.4,1325.3,527.2,1306.7z
		 M507.1,1324.1c-3.5,17.6-13.9,29.5-30.3,36.3c-13.1,5.4-27,6.5-41,7.6c-3.8,0.3-4.6-1.6-4.6-4.9c0.1-15.2,0-30.5,0-45.7
		c0-14,0-28,0-42c0-3,0.1-5.9,1-8.9c1.5-4.6,4.5-7.3,9.1-7.7c20.2-1.7,38.9,1.9,53.7,17c7.8,7.9,12,17.7,12.6,28.9
		C508.2,1311.2,508.4,1317.7,507.1,1324.1z M527.2,1306.7c-1.5-22.2-12.1-38.3-32.5-47.3c-15.4-6.8-31.8-8.9-48.4-7.5
		c-12.9,1.1-18.7,3.8-20.4,19.9c-0.3,2.5-0.3,5-0.3,7.5c0,13.8,0,27.5,0,41.2c0,12.5-0.1,25,0,37.5c0.1,4.7-2.1,10.6,1,13.8
		c3.4,3.5,9.5,1.1,14.4,1.3c14.6,0.5,28.9-0.9,42.7-5.9c9-3.3,17.5-7.4,24.8-13.6C523.2,1341.2,528.4,1325.3,527.2,1306.7z
		 M507.1,1324.1c-3.5,17.6-13.9,29.5-30.3,36.3c-13.1,5.4-27,6.5-41,7.6c-3.8,0.3-4.6-1.6-4.6-4.9c0.1-15.2,0-30.5,0-45.7
		c0-14,0-28,0-42c0-3,0.1-5.9,1-8.9c1.5-4.6,4.5-7.3,9.1-7.7c20.2-1.7,38.9,1.9,53.7,17c7.8,7.9,12,17.7,12.6,28.9
		C508.2,1311.2,508.4,1317.7,507.1,1324.1z M527.2,1306.7c-1.5-22.2-12.1-38.3-32.5-47.3c-15.4-6.8-31.8-8.9-48.4-7.5
		c-12.9,1.1-18.7,3.8-20.4,19.9c-0.3,2.5-0.3,5-0.3,7.5c0,13.8,0,27.5,0,41.2c0,12.5-0.1,25,0,37.5c0.1,4.7-2.1,10.6,1,13.8
		c3.4,3.5,9.5,1.1,14.4,1.3c14.6,0.5,28.9-0.9,42.7-5.9c9-3.3,17.5-7.4,24.8-13.6C523.2,1341.2,528.4,1325.3,527.2,1306.7z
		 M507.1,1324.1c-3.5,17.6-13.9,29.5-30.3,36.3c-13.1,5.4-27,6.5-41,7.6c-3.8,0.3-4.6-1.6-4.6-4.9c0.1-15.2,0-30.5,0-45.7
		c0-14,0-28,0-42c0-3,0.1-5.9,1-8.9c1.5-4.6,4.5-7.3,9.1-7.7c20.2-1.7,38.9,1.9,53.7,17c7.8,7.9,12,17.7,12.6,28.9
		C508.2,1311.2,508.4,1317.7,507.1,1324.1z M527.2,1306.7c-1.5-22.2-12.1-38.3-32.5-47.3c-15.4-6.8-31.8-8.9-48.4-7.5
		c-12.9,1.1-18.7,3.8-20.4,19.9c-0.3,2.5-0.3,5-0.3,7.5c0,13.8,0,27.5,0,41.2c0,12.5-0.1,25,0,37.5c0.1,4.7-2.1,10.6,1,13.8
		c3.4,3.5,9.5,1.1,14.4,1.3c14.6,0.5,28.9-0.9,42.7-5.9c9-3.3,17.5-7.4,24.8-13.6C523.2,1341.2,528.4,1325.3,527.2,1306.7z
		 M507.1,1324.1c-3.5,17.6-13.9,29.5-30.3,36.3c-13.1,5.4-27,6.5-41,7.6c-3.8,0.3-4.6-1.6-4.6-4.9c0.1-15.2,0-30.5,0-45.7
		c0-14,0-28,0-42c0-3,0.1-5.9,1-8.9c1.5-4.6,4.5-7.3,9.1-7.7c20.2-1.7,38.9,1.9,53.7,17c7.8,7.9,12,17.7,12.6,28.9
		C508.2,1311.2,508.4,1317.7,507.1,1324.1z M527.2,1306.7c-1.5-22.2-12.1-38.3-32.5-47.3c-15.4-6.8-31.8-8.9-48.4-7.5
		c-12.9,1.1-18.7,3.8-20.4,19.9c-0.3,2.5-0.3,5-0.3,7.5c0,13.8,0,27.5,0,41.2c0,12.5-0.1,25,0,37.5c0.1,4.7-2.1,10.6,1,13.8
		c3.4,3.5,9.5,1.1,14.4,1.3c14.6,0.5,28.9-0.9,42.7-5.9c9-3.3,17.5-7.4,24.8-13.6C523.2,1341.2,528.4,1325.3,527.2,1306.7z
		 M507.1,1324.1c-3.5,17.6-13.9,29.5-30.3,36.3c-13.1,5.4-27,6.5-41,7.6c-3.8,0.3-4.6-1.6-4.6-4.9c0.1-15.2,0-30.5,0-45.7
		c0-14,0-28,0-42c0-3,0.1-5.9,1-8.9c1.5-4.6,4.5-7.3,9.1-7.7c20.2-1.7,38.9,1.9,53.7,17c7.8,7.9,12,17.7,12.6,28.9
		C508.2,1311.2,508.4,1317.7,507.1,1324.1z M527.2,1306.7c-1.5-22.2-12.1-38.3-32.5-47.3c-15.4-6.8-31.8-8.9-48.4-7.5
		c-12.9,1.1-18.7,3.8-20.4,19.9c-0.3,2.5-0.3,5-0.3,7.5c0,13.8,0,27.5,0,41.2c0,12.5-0.1,25,0,37.5c0.1,4.7-2.1,10.6,1,13.8
		c3.4,3.5,9.5,1.1,14.4,1.3c14.6,0.5,28.9-0.9,42.7-5.9c9-3.3,17.5-7.4,24.8-13.6C523.2,1341.2,528.4,1325.3,527.2,1306.7z
		 M507.1,1324.1c-3.5,17.6-13.9,29.5-30.3,36.3c-13.1,5.4-27,6.5-41,7.6c-3.8,0.3-4.6-1.6-4.6-4.9c0.1-15.2,0-30.5,0-45.7
		c0-14,0-28,0-42c0-3,0.1-5.9,1-8.9c1.5-4.6,4.5-7.3,9.1-7.7c20.2-1.7,38.9,1.9,53.7,17c7.8,7.9,12,17.7,12.6,28.9
		C508.2,1311.2,508.4,1317.7,507.1,1324.1z M527.2,1306.7c-1.5-22.2-12.1-38.3-32.5-47.3c-15.4-6.8-31.8-8.9-48.4-7.5
		c-12.9,1.1-18.7,3.8-20.4,19.9c-0.3,2.5-0.3,5-0.3,7.5c0,13.8,0,27.5,0,41.2c0,12.5-0.1,25,0,37.5c0.1,4.7-2.1,10.6,1,13.8
		c3.4,3.5,9.5,1.1,14.4,1.3c14.6,0.5,28.9-0.9,42.7-5.9c9-3.3,17.5-7.4,24.8-13.6C523.2,1341.2,528.4,1325.3,527.2,1306.7z
		 M507.1,1324.1c-3.5,17.6-13.9,29.5-30.3,36.3c-13.1,5.4-27,6.5-41,7.6c-3.8,0.3-4.6-1.6-4.6-4.9c0.1-15.2,0-30.5,0-45.7
		c0-14,0-28,0-42c0-3,0.1-5.9,1-8.9c1.5-4.6,4.5-7.3,9.1-7.7c20.2-1.7,38.9,1.9,53.7,17c7.8,7.9,12,17.7,12.6,28.9
		C508.2,1311.2,508.4,1317.7,507.1,1324.1z M527.2,1306.7c-1.5-22.2-12.1-38.3-32.5-47.3c-15.4-6.8-31.8-8.9-48.4-7.5
		c-12.9,1.1-18.7,3.8-20.4,19.9c-0.3,2.5-0.3,5-0.3,7.5c0,13.8,0,27.5,0,41.2c0,12.5-0.1,25,0,37.5c0.1,4.7-2.1,10.6,1,13.8
		c3.4,3.5,9.5,1.1,14.4,1.3c14.6,0.5,28.9-0.9,42.7-5.9c9-3.3,17.5-7.4,24.8-13.6C523.2,1341.2,528.4,1325.3,527.2,1306.7z
		 M507.1,1324.1c-3.5,17.6-13.9,29.5-30.3,36.3c-13.1,5.4-27,6.5-41,7.6c-3.8,0.3-4.6-1.6-4.6-4.9c0.1-15.2,0-30.5,0-45.7
		c0-14,0-28,0-42c0-3,0.1-5.9,1-8.9c1.5-4.6,4.5-7.3,9.1-7.7c20.2-1.7,38.9,1.9,53.7,17c7.8,7.9,12,17.7,12.6,28.9
		C508.2,1311.2,508.4,1317.7,507.1,1324.1z M610.7,1512.3c-2.3-1.5-4.6-3-7.1-4.3c-20.7-10.3-37.7-25.1-53-42.2
		c-17-18.9-34.4-37.6-51.6-56.4c-5.9-6.4-11.7-12.9-18.4-20.3c8.3-2.4,15.5-4.4,22.3-7.5c33.6-15.1,51.1-48.3,45.8-84.3
		c-4-27.4-20.5-44.7-45.2-55.2c-13.7-5.8-28.3-8.4-43.1-8.5c-34.7-0.4-69.4-0.2-104.1-0.2c-1.3,0-2.5,0-3.8,0.1
		c-2.5,0.2-4.3,1.5-4.9,3.9c-0.6,2.7,1.3,4.1,3.3,5.2c1.3,0.7,2.8,1.1,4.2,1.6c7.3,2.6,14.5,5.5,21.8,7.8c6.1,1.9,9.6,5.8,11.3,11.9
		c2.2,7.7,3.6,15.6,3.8,23.6c0.2,10.8,0.1,21.5,0.1,32.3c0,47,0,94-0.1,141c0,9.7-1,19.4-4.7,28.7c-1.5,4-4.1,6.5-8.1,8.1
		c-8.1,3.2-16.1,6.8-24.1,10.3c-2.8,1.3-7.6,1.9-7,5.6c0.7,4.4,5.5,3.3,8.8,3.3c37.5,0,74.9,0,112.4,0c1.5,0,3,0,4.5-0.1
		c1.9-0.2,3.4-0.9,3.9-2.9c0.5-2.3-0.5-3.9-2.5-4.9c-1.3-0.7-2.8-1.1-4.2-1.6c-9.2-3.2-18.3-6.5-27.5-9.7c-9.9-3.4-12.1-6.4-12.2-17
		c-0.1-27-0.1-54,0-81c0-1.8-1.1-4.5,1.2-5.4c2.6-1.1,3.7,1.8,5.4,3.1c0.4,0.3,0.7,0.7,1,1.1c23.2,25.1,46.4,50.3,69.7,75.4
		c12.8,13.8,26.8,26.2,42.8,36.2c14.8,9.2,30.7,14.3,48.3,13c3.5-0.3,6.9-1,10.2-2.1c1.9-0.6,3.6-1.9,4-4.1
		C614.4,1514.3,612.3,1513.4,610.7,1512.3z M583.7,1512.8c-12.3-3.7-22-11.5-31.5-19.6c-18.3-15.6-34-33.8-50.4-51.3
		c-17.6-18.8-35.2-37.6-52.5-56.5c-2.9-3.1-5.4-3.9-9-1.8c-1.7,1-3.6,1.7-5.5,2.3c-2.8,1-6.6,1.1-8.2,3c-2.2,2.6-0.8,6.7-0.8,10.2
		c-0.1,24.7,0,49.5,0,74.2c0,2.3-0.1,4.5,0.1,6.7c1.2,12.3,2.4,18.4,17.1,23c6.3,2,12.5,4.4,18.7,6.6c-0.1,0.3-0.2,0.7-0.3,1h-92.7
		c0-0.3-0.1-0.6-0.2-0.8c11.5-3.8,23.1-7.5,34.6-11.3c6.9-2.3,6.9-2.3,6.9-9.2c0-76.2,0-152.4,0-228.6c0-6.6-0.1-6.6-6.5-8.9
		c-11.7-4.2-23.5-8.3-35.2-12.4c0.5-2.2,2.1-1.4,3-1.4c30,0,59.9-0.3,89.9,0.2c16.1,0.3,31.7,3.5,46,11.4
		c20.7,11.4,32.7,28.5,35.3,52.3c1.7,15.3,0,29.9-7,43.7c-8.1,16.2-22.4,25-38.4,31.7c-8.5,3.6-17.4,5.9-26.1,8.4
		c-0.7,2.4,1.2,3.3,2.3,4.5c22.3,23.9,44.6,47.9,67,71.7c9.1,9.7,18.4,19,28.4,27.8c10.7,9.4,21.7,18.5,35.2,24.4
		C597.4,1515.9,592.6,1515.5,583.7,1512.8z M508.6,1353.5c14.6-12.3,19.8-28.2,18.6-46.8c-1.5-22.2-12.1-38.3-32.5-47.3
		c-15.4-6.8-31.8-8.9-48.4-7.5c-12.9,1.1-18.7,3.8-20.4,19.9c-0.3,2.5-0.3,5-0.3,7.5c0,13.8,0,27.5,0,41.2c0,12.5-0.1,25,0,37.5
		c0.1,4.7-2.1,10.6,1,13.8c3.4,3.5,9.5,1.1,14.4,1.3c14.6,0.5,28.9-0.9,42.7-5.9C492.8,1363.8,501.3,1359.7,508.6,1353.5z
		 M435.9,1368c-3.8,0.3-4.6-1.6-4.6-4.9c0.1-15.2,0-30.5,0-45.7c0-14,0-28,0-42c0-3,0.1-5.9,1-8.9c1.5-4.6,4.5-7.3,9.1-7.7
		c20.2-1.7,38.9,1.9,53.7,17c7.8,7.9,12,17.7,12.6,28.9c0.4,6.5,0.6,13-0.7,19.4c-3.5,17.6-13.9,29.5-30.3,36.3
		C463.7,1365.9,449.8,1367,435.9,1368z M527.2,1306.7c-1.5-22.2-12.1-38.3-32.5-47.3c-15.4-6.8-31.8-8.9-48.4-7.5
		c-12.9,1.1-18.7,3.8-20.4,19.9c-0.3,2.5-0.3,5-0.3,7.5c0,13.8,0,27.5,0,41.2c0,12.5-0.1,25,0,37.5c0.1,4.7-2.1,10.6,1,13.8
		c3.4,3.5,9.5,1.1,14.4,1.3c14.6,0.5,28.9-0.9,42.7-5.9c9-3.3,17.5-7.4,24.8-13.6C523.2,1341.2,528.4,1325.3,527.2,1306.7z
		 M507.1,1324.1c-3.5,17.6-13.9,29.5-30.3,36.3c-13.1,5.4-27,6.5-41,7.6c-3.8,0.3-4.6-1.6-4.6-4.9c0.1-15.2,0-30.5,0-45.7
		c0-14,0-28,0-42c0-3,0.1-5.9,1-8.9c1.5-4.6,4.5-7.3,9.1-7.7c20.2-1.7,38.9,1.9,53.7,17c7.8,7.9,12,17.7,12.6,28.9
		C508.2,1311.2,508.4,1317.7,507.1,1324.1z M527.2,1306.7c-1.5-22.2-12.1-38.3-32.5-47.3c-15.4-6.8-31.8-8.9-48.4-7.5
		c-12.9,1.1-18.7,3.8-20.4,19.9c-0.3,2.5-0.3,5-0.3,7.5c0,13.8,0,27.5,0,41.2c0,12.5-0.1,25,0,37.5c0.1,4.7-2.1,10.6,1,13.8
		c3.4,3.5,9.5,1.1,14.4,1.3c14.6,0.5,28.9-0.9,42.7-5.9c9-3.3,17.5-7.4,24.8-13.6C523.2,1341.2,528.4,1325.3,527.2,1306.7z
		 M507.1,1324.1c-3.5,17.6-13.9,29.5-30.3,36.3c-13.1,5.4-27,6.5-41,7.6c-3.8,0.3-4.6-1.6-4.6-4.9c0.1-15.2,0-30.5,0-45.7
		c0-14,0-28,0-42c0-3,0.1-5.9,1-8.9c1.5-4.6,4.5-7.3,9.1-7.7c20.2-1.7,38.9,1.9,53.7,17c7.8,7.9,12,17.7,12.6,28.9
		C508.2,1311.2,508.4,1317.7,507.1,1324.1z M527.2,1306.7c-1.5-22.2-12.1-38.3-32.5-47.3c-15.4-6.8-31.8-8.9-48.4-7.5
		c-12.9,1.1-18.7,3.8-20.4,19.9c-0.3,2.5-0.3,5-0.3,7.5c0,13.8,0,27.5,0,41.2c0,12.5-0.1,25,0,37.5c0.1,4.7-2.1,10.6,1,13.8
		c3.4,3.5,9.5,1.1,14.4,1.3c14.6,0.5,28.9-0.9,42.7-5.9c9-3.3,17.5-7.4,24.8-13.6C523.2,1341.2,528.4,1325.3,527.2,1306.7z
		 M507.1,1324.1c-3.5,17.6-13.9,29.5-30.3,36.3c-13.1,5.4-27,6.5-41,7.6c-3.8,0.3-4.6-1.6-4.6-4.9c0.1-15.2,0-30.5,0-45.7
		c0-14,0-28,0-42c0-3,0.1-5.9,1-8.9c1.5-4.6,4.5-7.3,9.1-7.7c20.2-1.7,38.9,1.9,53.7,17c7.8,7.9,12,17.7,12.6,28.9
		C508.2,1311.2,508.4,1317.7,507.1,1324.1z M527.2,1306.7c-1.5-22.2-12.1-38.3-32.5-47.3c-15.4-6.8-31.8-8.9-48.4-7.5
		c-12.9,1.1-18.7,3.8-20.4,19.9c-0.3,2.5-0.3,5-0.3,7.5c0,13.8,0,27.5,0,41.2c0,12.5-0.1,25,0,37.5c0.1,4.7-2.1,10.6,1,13.8
		c3.4,3.5,9.5,1.1,14.4,1.3c14.6,0.5,28.9-0.9,42.7-5.9c9-3.3,17.5-7.4,24.8-13.6C523.2,1341.2,528.4,1325.3,527.2,1306.7z
		 M507.1,1324.1c-3.5,17.6-13.9,29.5-30.3,36.3c-13.1,5.4-27,6.5-41,7.6c-3.8,0.3-4.6-1.6-4.6-4.9c0.1-15.2,0-30.5,0-45.7
		c0-14,0-28,0-42c0-3,0.1-5.9,1-8.9c1.5-4.6,4.5-7.3,9.1-7.7c20.2-1.7,38.9,1.9,53.7,17c7.8,7.9,12,17.7,12.6,28.9
		C508.2,1311.2,508.4,1317.7,507.1,1324.1z M527.2,1306.7c-1.5-22.2-12.1-38.3-32.5-47.3c-15.4-6.8-31.8-8.9-48.4-7.5
		c-12.9,1.1-18.7,3.8-20.4,19.9c-0.3,2.5-0.3,5-0.3,7.5c0,13.8,0,27.5,0,41.2c0,12.5-0.1,25,0,37.5c0.1,4.7-2.1,10.6,1,13.8
		c3.4,3.5,9.5,1.1,14.4,1.3c14.6,0.5,28.9-0.9,42.7-5.9c9-3.3,17.5-7.4,24.8-13.6C523.2,1341.2,528.4,1325.3,527.2,1306.7z
		 M507.1,1324.1c-3.5,17.6-13.9,29.5-30.3,36.3c-13.1,5.4-27,6.5-41,7.6c-3.8,0.3-4.6-1.6-4.6-4.9c0.1-15.2,0-30.5,0-45.7
		c0-14,0-28,0-42c0-3,0.1-5.9,1-8.9c1.5-4.6,4.5-7.3,9.1-7.7c20.2-1.7,38.9,1.9,53.7,17c7.8,7.9,12,17.7,12.6,28.9
		C508.2,1311.2,508.4,1317.7,507.1,1324.1z M527.2,1306.7c-1.5-22.2-12.1-38.3-32.5-47.3c-15.4-6.8-31.8-8.9-48.4-7.5
		c-12.9,1.1-18.7,3.8-20.4,19.9c-0.3,2.5-0.3,5-0.3,7.5c0,13.8,0,27.5,0,41.2c0,12.5-0.1,25,0,37.5c0.1,4.7-2.1,10.6,1,13.8
		c3.4,3.5,9.5,1.1,14.4,1.3c14.6,0.5,28.9-0.9,42.7-5.9c9-3.3,17.5-7.4,24.8-13.6C523.2,1341.2,528.4,1325.3,527.2,1306.7z
		 M507.1,1324.1c-3.5,17.6-13.9,29.5-30.3,36.3c-13.1,5.4-27,6.5-41,7.6c-3.8,0.3-4.6-1.6-4.6-4.9c0.1-15.2,0-30.5,0-45.7
		c0-14,0-28,0-42c0-3,0.1-5.9,1-8.9c1.5-4.6,4.5-7.3,9.1-7.7c20.2-1.7,38.9,1.9,53.7,17c7.8,7.9,12,17.7,12.6,28.9
		C508.2,1311.2,508.4,1317.7,507.1,1324.1z M527.2,1306.7c-1.5-22.2-12.1-38.3-32.5-47.3c-15.4-6.8-31.8-8.9-48.4-7.5
		c-12.9,1.1-18.7,3.8-20.4,19.9c-0.3,2.5-0.3,5-0.3,7.5c0,13.8,0,27.5,0,41.2c0,12.5-0.1,25,0,37.5c0.1,4.7-2.1,10.6,1,13.8
		c3.4,3.5,9.5,1.1,14.4,1.3c14.6,0.5,28.9-0.9,42.7-5.9c9-3.3,17.5-7.4,24.8-13.6C523.2,1341.2,528.4,1325.3,527.2,1306.7z
		 M507.1,1324.1c-3.5,17.6-13.9,29.5-30.3,36.3c-13.1,5.4-27,6.5-41,7.6c-3.8,0.3-4.6-1.6-4.6-4.9c0.1-15.2,0-30.5,0-45.7
		c0-14,0-28,0-42c0-3,0.1-5.9,1-8.9c1.5-4.6,4.5-7.3,9.1-7.7c20.2-1.7,38.9,1.9,53.7,17c7.8,7.9,12,17.7,12.6,28.9
		C508.2,1311.2,508.4,1317.7,507.1,1324.1z M527.2,1306.7c-1.5-22.2-12.1-38.3-32.5-47.3c-15.4-6.8-31.8-8.9-48.4-7.5
		c-12.9,1.1-18.7,3.8-20.4,19.9c-0.3,2.5-0.3,5-0.3,7.5c0,13.8,0,27.5,0,41.2c0,12.5-0.1,25,0,37.5c0.1,4.7-2.1,10.6,1,13.8
		c3.4,3.5,9.5,1.1,14.4,1.3c14.6,0.5,28.9-0.9,42.7-5.9c9-3.3,17.5-7.4,24.8-13.6C523.2,1341.2,528.4,1325.3,527.2,1306.7z
		 M507.1,1324.1c-3.5,17.6-13.9,29.5-30.3,36.3c-13.1,5.4-27,6.5-41,7.6c-3.8,0.3-4.6-1.6-4.6-4.9c0.1-15.2,0-30.5,0-45.7
		c0-14,0-28,0-42c0-3,0.1-5.9,1-8.9c1.5-4.6,4.5-7.3,9.1-7.7c20.2-1.7,38.9,1.9,53.7,17c7.8,7.9,12,17.7,12.6,28.9
		C508.2,1311.2,508.4,1317.7,507.1,1324.1z M527.2,1306.7c-1.5-22.2-12.1-38.3-32.5-47.3c-15.4-6.8-31.8-8.9-48.4-7.5
		c-12.9,1.1-18.7,3.8-20.4,19.9c-0.3,2.5-0.3,5-0.3,7.5c0,13.8,0,27.5,0,41.2c0,12.5-0.1,25,0,37.5c0.1,4.7-2.1,10.6,1,13.8
		c3.4,3.5,9.5,1.1,14.4,1.3c14.6,0.5,28.9-0.9,42.7-5.9c9-3.3,17.5-7.4,24.8-13.6C523.2,1341.2,528.4,1325.3,527.2,1306.7z
		 M507.1,1324.1c-3.5,17.6-13.9,29.5-30.3,36.3c-13.1,5.4-27,6.5-41,7.6c-3.8,0.3-4.6-1.6-4.6-4.9c0.1-15.2,0-30.5,0-45.7
		c0-14,0-28,0-42c0-3,0.1-5.9,1-8.9c1.5-4.6,4.5-7.3,9.1-7.7c20.2-1.7,38.9,1.9,53.7,17c7.8,7.9,12,17.7,12.6,28.9
		C508.2,1311.2,508.4,1317.7,507.1,1324.1z M527.2,1306.7c-1.5-22.2-12.1-38.3-32.5-47.3c-15.4-6.8-31.8-8.9-48.4-7.5
		c-12.9,1.1-18.7,3.8-20.4,19.9c-0.3,2.5-0.3,5-0.3,7.5c0,13.8,0,27.5,0,41.2c0,12.5-0.1,25,0,37.5c0.1,4.7-2.1,10.6,1,13.8
		c3.4,3.5,9.5,1.1,14.4,1.3c14.6,0.5,28.9-0.9,42.7-5.9c9-3.3,17.5-7.4,24.8-13.6C523.2,1341.2,528.4,1325.3,527.2,1306.7z
		 M507.1,1324.1c-3.5,17.6-13.9,29.5-30.3,36.3c-13.1,5.4-27,6.5-41,7.6c-3.8,0.3-4.6-1.6-4.6-4.9c0.1-15.2,0-30.5,0-45.7
		c0-14,0-28,0-42c0-3,0.1-5.9,1-8.9c1.5-4.6,4.5-7.3,9.1-7.7c20.2-1.7,38.9,1.9,53.7,17c7.8,7.9,12,17.7,12.6,28.9
		C508.2,1311.2,508.4,1317.7,507.1,1324.1z M527.2,1306.7c-1.5-22.2-12.1-38.3-32.5-47.3c-15.4-6.8-31.8-8.9-48.4-7.5
		c-12.9,1.1-18.7,3.8-20.4,19.9c-0.3,2.5-0.3,5-0.3,7.5c0,13.8,0,27.5,0,41.2c0,12.5-0.1,25,0,37.5c0.1,4.7-2.1,10.6,1,13.8
		c3.4,3.5,9.5,1.1,14.4,1.3c14.6,0.5,28.9-0.9,42.7-5.9c9-3.3,17.5-7.4,24.8-13.6C523.2,1341.2,528.4,1325.3,527.2,1306.7z
		 M507.1,1324.1c-3.5,17.6-13.9,29.5-30.3,36.3c-13.1,5.4-27,6.5-41,7.6c-3.8,0.3-4.6-1.6-4.6-4.9c0.1-15.2,0-30.5,0-45.7
		c0-14,0-28,0-42c0-3,0.1-5.9,1-8.9c1.5-4.6,4.5-7.3,9.1-7.7c20.2-1.7,38.9,1.9,53.7,17c7.8,7.9,12,17.7,12.6,28.9
		C508.2,1311.2,508.4,1317.7,507.1,1324.1z M527.2,1306.7c-1.5-22.2-12.1-38.3-32.5-47.3c-15.4-6.8-31.8-8.9-48.4-7.5
		c-12.9,1.1-18.7,3.8-20.4,19.9c-0.3,2.5-0.3,5-0.3,7.5c0,13.8,0,27.5,0,41.2c0,12.5-0.1,25,0,37.5c0.1,4.7-2.1,10.6,1,13.8
		c3.4,3.5,9.5,1.1,14.4,1.3c14.6,0.5,28.9-0.9,42.7-5.9c9-3.3,17.5-7.4,24.8-13.6C523.2,1341.2,528.4,1325.3,527.2,1306.7z
		 M507.1,1324.1c-3.5,17.6-13.9,29.5-30.3,36.3c-13.1,5.4-27,6.5-41,7.6c-3.8,0.3-4.6-1.6-4.6-4.9c0.1-15.2,0-30.5,0-45.7
		c0-14,0-28,0-42c0-3,0.1-5.9,1-8.9c1.5-4.6,4.5-7.3,9.1-7.7c20.2-1.7,38.9,1.9,53.7,17c7.8,7.9,12,17.7,12.6,28.9
		C508.2,1311.2,508.4,1317.7,507.1,1324.1z"/>
	<path class="st1" d="M929.4,1426.9c-3.7-21.6-18-36.4-36.3-47.1c-18.5-10.8-37.5-20.9-56.3-31.2c-8.8-4.8-17.1-10.3-24.5-17.1
		c-21.5-20.2-15.4-46.8,0.9-60.5c11.1-9.4,24-14.3,38.4-14.7c18.1-0.5,32,6.3,39.3,23.9c4,9.7,8.6,19.1,12.9,28.7
		c0.7,1.6,1.5,3.2,2.4,4.6c1,1.5,2.3,2.8,4.3,2.3c1.8-0.5,3-1.8,3.3-3.7c0.2-1.2,0.2-2.5,0.2-3.7c0-22-0.1-44,0.1-66
		c0-4.1-1.6-5.8-5.2-6.7c-11.6-3-23-6.1-35.1-7.3c-18.1-1.8-35.9-1.1-53.4,3.7c-33,9-62.6,36.8-59.8,80.8c1.7,27,15.4,46.6,38,59.9
		c19.6,11.5,39.9,21.6,59.9,32.5c9,4.9,17.3,10.9,24.5,18.4c18.4,19.3,11.9,55.2-15.4,65c-14.3,5.1-28.8,5.2-43.6,3.6
		c-17.2-1.9-28.8-11.1-35.2-27.3c-3.8-9.7-8.4-19.2-12.6-28.8c-0.6-1.4-1.1-2.8-2-4c-1-1.4-2.4-2.7-4.4-2.1c-2,0.6-2.5,2.3-2.6,4.1
		c-0.1,1.7-0.1,3.5-0.1,5.2c0,10.8,0,21.5,0,32.2c0,11.2,0,22.5,0,33.7c0,6.4,0.2,6.6,6.1,8.4c29.1,8.4,58.6,12.1,88.7,7.7
		c10.9-1.6,21.4-4.8,31.2-10.1C925.1,1493.9,934.9,1458.8,929.4,1426.9z M925,1450.3c-1.5,11.5-4.1,22.6-10.3,32.5
		c-8.8,14.3-21.6,23.3-37.6,27.9c-26.9,7.8-53,5.2-79.1-5c-11.1-4.4-17.5-9.8-18.5-22.5c-0.9-12.3-4.3-24.5-6.8-37.3
		c2.5,1.2,2.9,3.1,3.7,4.7c3.3,7,6.5,14.1,9.8,21.1c6.8,14.3,17.8,23.3,33.3,26.4c18.7,3.7,37.2,3.4,55.4-2.8
		c30.4-10.3,40.1-41.3,34.2-65.1c-3-11.9-10.9-20.5-20.1-28.2c-7.7-6.5-16.6-11-25.4-15.7c-16.5-8.8-33.1-17.6-49.6-26.4
		c-9.1-4.9-17.1-11.3-24-19c-13.8-15.4-16.3-33.3-9.9-52.5c6.3-18.9,19.6-32.2,36.3-42.2c14.2-8.5,29.8-12.6,46.3-12.9
		c11.5-0.2,23,0.1,34.2,3.1c2.2,0.6,4.4,1.1,6.4,1.9c3.5,1.4,5.6,3.8,5.6,7.9c-0.1,17.6,0,35.2,0,54c-3.2-4.1-3.1-8-4-11.4
		c-2.7-10.1-5.1-20.3-7.4-30.5c-0.6-2.8-1.9-4.5-4.6-5.2c-21.4-5.2-42.8-7.1-64.1,0.2c-13.7,4.7-25.2,12.5-31.1,26.3
		c-8.3,19.3-6.2,37.9,9.1,53.1c9.3,9.3,20.5,15.8,31.9,22c16.7,9.1,33.3,18.1,50,27.2c9.6,5.2,17.5,12.5,24.1,21.1
		C923.6,1416.9,927.2,1432.8,925,1450.3z"/>
	<path class="st1" d="M1162.7,1230.2c0-7.5-1.5-8.3-8.5-4.6c-11.2,6-23.1,9.2-35.8,9.2c-44.2,0-88.4,0.1-132.6-0.1
		c-12.5-0.1-24.8-2.1-36.4-7.4c-6.2-2.8-7.4-2.1-7.4,4.9c-0.1,25.7,0,51.5,0,77.2c0,2-0.3,4,1,5.8c1.6,2.2,3.9,2.3,5.4-0.1
		c0.8-1.3,1.2-2.7,1.8-4.1c4.9-12,10-24,14.5-36.1c3-8.2,9-12.2,16.9-12.5c16-0.6,32-0.2,47.9-0.2c2.8,0,4.2,1.1,4,4
		c-0.1,1.3,0,2.5,0,3.8c0,65,0,129.9,0,194.9c0,6.6-1.2,12.9-3.1,19.1c-2.3,7.6-6.5,13-14.6,15.6c-9,2.9-17.6,7-26.3,10.7
		c-1.8,0.8-3.9,1.8-3.5,4.3c0.4,2.7,2.7,2.5,4.7,2.6c1.3,0.1,2.5,0,3.8,0c38.7,0,77.4,0,116.1,0c1.8,0,3.5,0,5.2-0.1
		c1.3-0.1,2.5-0.8,2.9-2c0.6-1.6,0.1-3.1-1.2-4c-1.4-1-3.1-1.7-4.7-2.3c-7.7-2.9-15.3-6.3-23.2-8.5c-10.4-2.9-14.3-10.2-15.3-19.8
		c-0.8-7.7-1.5-15.4-1.5-23.2c0.1-30,0.1-60,0.1-90v-58.5c0-13.5,0-27,0-40.5c0-6,0.1-6.1,6.4-6.1c9.7-0.1,19.5,0.3,29.2-0.1
		c8.9-0.4,16.6,2.5,24.1,6.7c3.8,2.1,6.5,5.1,8.2,9.3c4.1,10.5,8.5,20.8,12.8,31.2c0.9,2.1,1.9,4.1,3,6c0.8,1.3,2.1,2.3,3.8,1.8
		c1.3-0.4,2-1.5,2.2-2.8c0.2-1,0.2-2,0.2-3C1162.8,1284.1,1162.9,1257.2,1162.7,1230.2z M1158,1294.7c-0.3,0.1-0.6,0.1-0.9,0.1
		c-3.5-15.2-7-30.4-10.8-46.7c-10.6,10.3-23.6,8-35.7,8.8c-11.7,0.7-23.5,0.1-35.2,0.2c-7.4,0-7.5,0.1-7.5,7.3c0,17.7,0,35.5,0,53.2
		c0,51.7,0,103.4,0,155.2c0,7.4,1.3,14.4,4.8,20.9c2.5,4.6,5.9,7.8,11,9.4c6.1,1.9,11.9,4.4,17.6,7.7h-97.5
		c-0.1-0.3-0.2-0.5-0.2-0.8c7.3-2.1,14.6-4.3,21.9-6.4c7.4-2.1,14.8-4.4,22.3-6.2c3.9-1,5.1-3,5-6.9c-0.2-13.5-0.1-27-0.1-40.5
		c0-64.2,0-128.4,0-192.7c0-2.7,0.6-5.4-0.9-8.8c-1.1,0.5-1.9,0.7-2.4,1.2c-6,6.9-13.8,7.7-22.3,7.4c-14.5-0.5-29,0-43.4-0.1
		c-10.7-0.1-18,4.4-22.1,14.5c-3.3,8.1-6.9,15.9-10.6,24.4c-1.8-5.6-2.3-53.9-0.8-64.5c13.2,7.1,27.6,8.2,42.1,8.2
		c40.2,0.1,80.4,0,120.6,0c9.3,0,18.4-1.2,27.5-3c6.2-1.2,11.7-4,17.6-7.2V1294.7z"/>
	<path class="st2" d="M1702,1449.4c0-2.3,0-4.8-2.8-5.4c-2.3-0.5-3.5,1.7-4.6,3.2c-1,1.4-1.8,3-2.6,4.5c-3.6,6.6-7.7,12.9-10.8,19.7
		c-4,9-11.5,12.8-20.2,15.1c-4.3,1.2-8.7,1.8-13.3,1.8c-13.2-0.2-26.5,0-39.7-0.1c-8.9,0-12.8-2.8-15.3-11.1
		c-1.8-6-2.7-12.2-2.8-18.4c-0.2-62-0.2-124-0.3-186c0-6.2,2.4-11.1,6.7-15.3c4.4-4.3,9.7-6.9,15.4-8.9c6.1-2.2,12.3-4.1,18.3-6.5
		c2.7-1.1,7.7-1.1,6.9-5.1c-0.7-3.4-5.1-2.1-7.9-2.1c-37-0.1-73.9-0.1-110.9-0.1c-2.5,0-5,0-7.5,0c-1.7,0-3.7-0.2-4.5,1.8
		c-1,2.4,0.8,3.8,2.4,4.9c1.4,1,3,1.7,4.6,2.4c6.9,2.9,13.6,6.3,20.8,8.5c8.3,2.5,12.2,8,14,15.9c2.1,8.8,3.1,17.7,3.1,26.7
		c0,55.5,0,111,0,166.5c0,2.8,0,5.5-0.2,8.3c-1.4,15.2-7.8,27.2-22.5,33.7c-4.1,1.8-8.1,3.8-12,6.1c-2.5,1.4-7,2-6.3,5.3
		c0.8,3.4,5.1,2.1,7.9,2.1c28,0.1,55.9,0,83.9,0h29.2c18.7,0,37.5-0.3,56.2,0.2c7.9,0.2,14.9-6.9,14.8-13.7
		C1701.9,1485.4,1702,1467.4,1702,1449.4z M1696,1499.5c-0.3,7.9-4.4,11.6-11.8,11.6c-50.5,0.1-100.9,0-151.4,0
		c-0.9,0-1.9-0.2-4.4-0.5c11.6-3.7,21.7-6.8,31.8-10c1.9-0.6,3.8-1.2,5.7-1.8c2.2-0.7,3.3-2.2,3.2-4.5c0-1.8,0-3.5,0-5.3v-227.2
		c0-1-0.1-2,0-3c0.7-4.3-1.3-6.3-5.4-7.3c-10.2-2.6-20.2-5.4-30.3-8.3c-2.6-0.7-5.3-1.2-8.6-3.5h93.4c-1.6,3.1-4.7,2.8-7.1,3.6
		c-5.7,1.9-11.3,4-16.2,7.6c-6.2,4.6-9.7,10.5-9.7,18.4c0.1,62.2,0,124.5,0.2,186.7c0,8,1,16,2.8,23.8c0.5,1.9,1,3.9,1.7,5.8
		c2.6,6.7,5.8,8.9,13,8.9c17.7,0.1,35.5,0.3,53.2-0.1c8-0.2,15.4,0.5,21.7,5.8c0.7,0.6,1.7,1,2.6,1.4c0.4,0.2,1,0,2.2,0
		c4-13.7,8.1-27.7,12.2-41.7c0.4,0.1,0.7,0.1,1.1,0.2C1696.2,1473.3,1696.5,1486.4,1696,1499.5z"/>
	<path class="st1" d="M1453.3,1316.5c-24.8-45.4-63.4-69.1-115.5-69.3c-4.7,0-9.5-0.3-14.2,0.1c-5.2,0.5-10.4,1.4-15.5,2.6
		c-42.4,9.9-72.4,34.8-88.7,75.2c-10.6,26.1-10.8,53.4-3.9,80.2c11.4,44.6,39.1,75.2,82.9,90.2c20.7,7.1,42.1,6.9,63.6,3.7
		c36.8-5.5,64.9-24.5,85.2-55.3c11.2-17,16.8-36,18.8-56.2C1468.5,1362.6,1465.4,1338.5,1453.3,1316.5z M1411.8,1466.3
		c-16.9,16.5-37.1,25.6-60.5,28.4c-24.8,3-48.5-0.2-70.2-12.5c-36.6-20.8-58.2-52.2-63.2-94.5c-2.2-18.4-1.7-36.6,4.1-54.1
		c14.1-42.2,42.8-68.4,86.9-76.3c20.4-3.7,40.8-2.5,60.5,4.8c26.7,9.9,46.1,28.4,60.2,52.7c11.9,20.3,17.2,42.4,16.7,64.1
		C1446.7,1414,1435.8,1442.8,1411.8,1466.3z"/>
	<path class="st1" d="M1485.8,1349.8c-8.6-53.5-39.8-91.1-89.3-111.8c-42.4-17.8-86.1-15.5-128.4,1.5
		c-36.3,14.6-63.7,39.9-80.3,75.8c-12.9,27.8-15,57.1-10.4,87.1c6.5,42.3,28.5,74.6,63.6,98.1c26.4,17.6,55.9,24.5,89.1,24.1
		c10.3,0.3,22.2-0.9,34-3c38.6-6.7,70.3-25.1,94.1-56.3C1484.4,1431,1492.5,1391.5,1485.8,1349.8z M1389.2,1508.3
		c-84.6,29.1-166-17-187.8-93.2c-14.8-51.7-5.5-99.7,32-140c25-26.9,56.2-41.5,93.2-43.5c29.9-1.6,58.3,3.1,84.3,18.2
		c39.3,22.8,63.4,56.1,69.7,101.8c1.1,7.7,1.3,15.4,1.5,27C1484,1440.6,1438.4,1491.3,1389.2,1508.3z"/>
	<path class="st1" d="M292.1,1290.6c-2.1-16.2-11.6-26-26.2-31.6c-16.1-6.2-32.9-7.7-50-7.4c-16.6,0.3-22.8,6.6-23.1,23.4
		c0,2.3,0,4.5,0,6.8v32.2c0,14,0.1,28-0.1,42c0,3.7,1,5.4,5,5.3c11-0.2,22,0.1,32.8-2.1c14.1-2.8,27.4-7.6,38.9-16.5
		C286.6,1329.5,295,1312.6,292.1,1290.6z M234.7,1353c-9.7,2.3-19.6,3.3-29.6,3c-5.9-0.1-6-0.2-6-6.5c-0.1-13,0-25.9,0-38.9
		c0-13.2,0.3-26.4-0.1-39.7c-0.2-5.9,2.5-10.8,9.6-12.1c16.7-3.1,32.8-1.2,47.9,6.6c11.9,6.1,17.3,16.9,18.7,29.7
		C278.4,1323.5,262.4,1346.4,234.7,1353z"/>
	<path class="st1" d="M299.6,1403.5c-7.3-8.5-16.3-14.5-26.7-18.7c-24.4-9.8-49.7-8.9-75.1-6.8c-4.1,0.3-5.1,2.6-5.1,6.4
		c0.2,15.5,0.1,31,0.1,46.4h0c0,15-0.1,29.9,0,44.9c0.1,12.5,5.4,19,17.5,19.9c21,1.6,41.8,0.6,61.9-6.9
		c22.3-8.3,36.1-23.3,38.5-47.7C312.1,1427.1,309,1414.4,299.6,1403.5z M247.8,1488.1c-11.4,2.5-23.1,4-34.8,2.1
		c-10.6-1.7-14.2-5.5-14.3-16.4c-0.2-23.2-0.1-46.4-0.1-69.6c0-5.2,0.1-10.5,0-15.7c-0.1-3.5,1.3-5,4.8-4.9c5.7,0.1,11.5,0,17.2,0
		c14.8-0.9,29.4,0.7,43,7.1c13,6.1,23.3,15.2,25.9,29.9C294.4,1448.5,285.4,1479.9,247.8,1488.1z"/>
	<path class="st1" d="M288.3,1371.7c-6-2.4-12.1-4.3-19-6.7c3.6-2.2,6.5-3.9,9.4-5.7c19.6-12.1,32.1-29.1,34.8-52.3
		c3.1-26.3-7.2-49.5-30.6-62.5c-13-7.2-27.1-10.6-41.6-10.8c-39.5-0.5-78.9-0.2-118.3-0.3c-3,0-6.7-0.1-7.5,3.4
		c-0.7,3.5,3.1,4.1,5.5,5.1c6.9,3,14,5.4,20.8,8.4c11.4,5.1,16.8,13.5,16.7,26.5c-0.4,64.5-0.2,128.9-0.2,193.4c0,1.8,0,3.5,0,5.3
		c-0.4,9.4-4.2,16.9-12.5,21.7c-2.8,1.6-5.7,3-8.7,4.4c-5.7,2.6-11.4,5-17.1,7.6c-1.9,0.9-4.9,1.8-4.3,4.4c0.6,2.8,3.5,3.1,6.1,3.1
		c0.5,0,1,0,1.5,0c38.2-0.7,76.4,1.5,114.5-1.4c15.2-1.1,30.2-3.9,44.5-9.3c24-9.1,41.7-24.6,47.8-50.5
		C338.6,1419.4,325.5,1386.6,288.3,1371.7z M282.4,1500.3c-15.1,6.5-31.1,9.5-47.3,10.2c-32.9,1.5-65.9,0.4-99.2-0.8
		c11-3.8,22-7.6,33-11.5c8.8-3.1,7.3-2.4,7.3-10.4c0-75.2,0-150.4,0-225.7c0-9,0.9-7.7-8-10.6c-11.3-3.7-22.6-7.3-33.9-12.1
		c1.5-0.1,3.1-0.3,4.6-0.3c32.2,0,64.4,0,96.6,0c12.3,0,24.3,1.8,35.9,6.2c22,8.2,34.9,26.2,35.5,49.7c0.2,6.2,0.4,12.5-0.8,18.7
		c-3,16.2-12.1,28.2-25.7,37c-7.8,5-15.8,9.5-24.2,13.5c-1.5,0.7-3.2,1-4.7,3.1c5.7,1.4,10.9,2.6,16.1,4c15.3,4.2,29.8,10,41.7,21
		c9.6,8.9,15.1,20,16.6,32.7C330.3,1461.1,315.2,1486.1,282.4,1500.3z"/>
	<path class="st2" d="M739.3,1508.3c-8.3-3.3-16.7-6.8-25.2-9.6c-7-2.4-10.3-7.1-11.8-14c-1.3-6.2-1.5-12.4-1.5-18.6
		c0-61.5,0-122.9,0-184.4c0-3,0-6,0.2-9c1-14.2,11.7-26.8,25.3-30c3.4-0.8,6.9-0.9,10.4-1.4c2.7-0.4,7.1,0.9,6.7-3.5
		c-0.3-4.1-4.6-3-7.4-3c-37.5-0.1-74.9,0-112.3,0c-1.7,0-3.5,0.1-5.2,0.3c-1.3,0.2-2.3,1.1-2.5,2.4c-0.2,1.4,0.7,2.5,1.8,2.9
		c1.8,0.7,3.8,1.1,5.8,1.4c24,4.3,38.1,20.8,38.1,45.4c0.1,61.2,0,122.4,0.1,183.6c0,4.5-0.5,9-1.2,13.4c-1.2,7.9-5.4,13.1-13,15.8
		c-8,2.9-15.8,6-23.7,9.2c-2.7,1.1-6.8,1.7-5.9,5.4c0.7,3.2,4.6,2.1,7.3,2.1c18.5,0.1,36.9,0,55.4,0c19,0,37.9,0,56.9,0
		c3,0,6.8,0,7.4-3.5C745.6,1510.1,741.8,1509.3,739.3,1508.3z M727.6,1510.8h-89.4c-0.1-0.3-0.1-0.6-0.2-0.9
		c11.4-3.4,22.8-6.7,34.2-10.1c7.4-2.2,7.4-2.3,7.4-10.3c0-75.2,0-150.4,0-225.7c0-10.3,0.1-8.3-8.4-11.1
		c-10.7-3.5-21.3-6.9-32-10.3c-1.4-0.4-2.8-0.8-4.3-2.4h88.3c-1.1,1.5-2.8,1.8-4.3,2.4c-14.2,5-20.3,16.1-22.3,30.1
		c-1,7.2-1.3,14.4-1.3,21.7c0.1,58.2,0,116.4,0,174.7c0,8,0.9,15.9,3.8,23.5c2.1,5.5,5.7,9.1,11.4,11c5.9,1.9,11.5,4.3,17.3,6.5
		C727.8,1510.1,727.7,1510.5,727.6,1510.8z"/>
	<path class="st3" d="M527.2,1306.7c-1.5-22.2-12.1-38.3-32.5-47.3c-15.4-6.8-31.8-8.9-48.4-7.5c-12.9,1.1-18.7,3.8-20.4,19.9
		c-0.3,2.5-0.3,5-0.3,7.5c0,13.8,0,27.5,0,41.2c0,12.5-0.1,25,0,37.5c0.1,4.7-2.1,10.6,1,13.8c3.4,3.5,9.5,1.1,14.4,1.3
		c14.6,0.5,28.9-0.9,42.7-5.9c9-3.3,17.5-7.4,24.8-13.6C523.2,1341.2,528.4,1325.3,527.2,1306.7z M507.1,1324.1
		c-3.5,17.6-13.9,29.5-30.3,36.3c-13.1,5.4-27,6.5-41,7.6c-3.8,0.3-4.6-1.6-4.6-4.9c0.1-15.2,0-30.5,0-45.7c0-14,0-28,0-42
		c0-3,0.1-5.9,1-8.9c1.5-4.6,4.5-7.3,9.1-7.7c20.2-1.7,38.9,1.9,53.7,17c7.8,7.9,12,17.7,12.6,28.9
		C508.2,1311.2,508.4,1317.7,507.1,1324.1z"/>
	<path class="st3" d="M1453.3,1316.5c-24.8-45.4-63.4-69.1-115.5-69.3c-4.7,0-9.5-0.3-14.2,0.1c-5.2,0.5-10.4,1.4-15.5,2.6
		c-42.4,9.9-72.4,34.8-88.7,75.2c-10.6,26.1-10.8,53.4-3.9,80.2c11.4,44.6,39.1,75.2,82.9,90.2c20.7,7.1,42.1,6.9,63.6,3.7
		c36.8-5.5,64.9-24.5,85.2-55.3c11.2-17,16.8-36,18.8-56.2C1468.5,1362.6,1465.4,1338.5,1453.3,1316.5z M1411.8,1466.3
		c-16.9,16.5-37.1,25.6-60.5,28.4c-24.8,3-48.5-0.2-70.2-12.5c-36.6-20.8-58.2-52.2-63.2-94.5c-2.2-18.4-1.7-36.6,4.1-54.1
		c14.1-42.2,42.8-68.4,86.9-76.3c20.4-3.7,40.8-2.5,60.5,4.8c26.7,9.9,46.1,28.4,60.2,52.7c11.9,20.3,17.2,42.4,16.7,64.1
		C1446.7,1414,1435.8,1442.8,1411.8,1466.3z"/>
	<path class="st3" d="M292.1,1290.6c-2.1-16.2-11.6-26-26.2-31.6c-16.1-6.2-32.9-7.7-50-7.4c-16.6,0.3-22.8,6.6-23.1,23.4
		c0,2.3,0,4.5,0,6.8v32.2c0,14,0.1,28-0.1,42c0,3.7,1,5.4,5,5.3c11-0.2,22,0.1,32.8-2.1c14.1-2.8,27.4-7.6,38.9-16.5
		C286.6,1329.5,295,1312.6,292.1,1290.6z M234.7,1353c-9.7,2.3-19.6,3.3-29.6,3c-5.9-0.1-6-0.2-6-6.5c-0.1-13,0-25.9,0-38.9
		c0-13.2,0.3-26.4-0.1-39.7c-0.2-5.9,2.5-10.8,9.6-12.1c16.7-3.1,32.8-1.2,47.9,6.6c11.9,6.1,17.3,16.9,18.7,29.7
		C278.4,1323.5,262.4,1346.4,234.7,1353z"/>
	<path class="st3" d="M299.6,1403.5c-7.3-8.5-16.3-14.5-26.7-18.7c-24.4-9.8-49.7-8.9-75.1-6.8c-4.1,0.3-5.1,2.6-5.1,6.4
		c0.2,15.5,0.1,31,0.1,46.4h0c0,15-0.1,29.9,0,44.9c0.1,12.5,5.4,19,17.5,19.9c21,1.6,41.8,0.6,61.9-6.9
		c22.3-8.3,36.1-23.3,38.5-47.7C312.1,1427.1,309,1414.4,299.6,1403.5z M247.8,1488.1c-11.4,2.5-23.1,4-34.8,2.1
		c-10.6-1.7-14.2-5.5-14.3-16.4c-0.2-23.2-0.1-46.4-0.1-69.6c0-5.2,0.1-10.5,0-15.7c-0.1-3.5,1.3-5,4.8-4.9c5.7,0.1,11.5,0,17.2,0
		c14.8-0.9,29.4,0.7,43,7.1c13,6.1,23.3,15.2,25.9,29.9C294.4,1448.5,285.4,1479.9,247.8,1488.1z"/>
	<path class="st0" d="M527.2,1306.7c-1.5-22.2-12.1-38.3-32.5-47.3c-15.4-6.8-31.8-8.9-48.4-7.5c-12.9,1.1-18.7,3.8-20.4,19.9
		c-0.3,2.5-0.3,5-0.3,7.5c0,13.8,0,27.5,0,41.2c0,12.5-0.1,25,0,37.5c0.1,4.7-2.1,10.6,1,13.8c3.4,3.5,9.5,1.1,14.4,1.3
		c14.6,0.5,28.9-0.9,42.7-5.9c9-3.3,17.5-7.4,24.8-13.6C523.2,1341.2,528.4,1325.3,527.2,1306.7z M507.1,1324.1
		c-3.5,17.6-13.9,29.5-30.3,36.3c-13.1,5.4-27,6.5-41,7.6c-3.8,0.3-4.6-1.6-4.6-4.9c0.1-15.2,0-30.5,0-45.7c0-14,0-28,0-42
		c0-3,0.1-5.9,1-8.9c1.5-4.6,4.5-7.3,9.1-7.7c20.2-1.7,38.9,1.9,53.7,17c7.8,7.9,12,17.7,12.6,28.9
		C508.2,1311.2,508.4,1317.7,507.1,1324.1z"/>
	<path class="st1" d="M1453.3,1316.5c-24.8-45.4-63.4-69.1-115.5-69.3c-4.7,0-9.5-0.3-14.2,0.1c-5.2,0.5-10.4,1.4-15.5,2.6
		c-42.4,9.9-72.4,34.8-88.7,75.2c-10.6,26.1-10.8,53.4-3.9,80.2c11.4,44.6,39.1,75.2,82.9,90.2c20.7,7.1,42.1,6.9,63.6,3.7
		c36.8-5.5,64.9-24.5,85.2-55.3c11.2-17,16.8-36,18.8-56.2C1468.5,1362.6,1465.4,1338.5,1453.3,1316.5z M1411.8,1466.3
		c-16.9,16.5-37.1,25.6-60.5,28.4c-24.8,3-48.5-0.2-70.2-12.5c-36.6-20.8-58.2-52.2-63.2-94.5c-2.2-18.4-1.7-36.6,4.1-54.1
		c14.1-42.2,42.8-68.4,86.9-76.3c20.4-3.7,40.8-2.5,60.5,4.8c26.7,9.9,46.1,28.4,60.2,52.7c11.9,20.3,17.2,42.4,16.7,64.1
		C1446.7,1414,1435.8,1442.8,1411.8,1466.3z"/>
	<path class="st2" d="M299.6,1403.5c-7.3-8.5-16.3-14.5-26.7-18.7c-24.4-9.8-49.7-8.9-75.1-6.8c-4.1,0.3-5.1,2.6-5.1,6.4
		c0.2,15.5,0.1,31,0.1,46.4h0c0,15-0.1,29.9,0,44.9c0.1,12.5,5.4,19,17.5,19.9c21,1.6,41.8,0.6,61.9-6.9
		c22.3-8.3,36.1-23.3,38.5-47.7C312.1,1427.1,309,1414.4,299.6,1403.5z M247.8,1488.1c-11.4,2.5-23.1,4-34.8,2.1
		c-10.6-1.7-14.2-5.5-14.3-16.4c-0.2-23.2-0.1-46.4-0.1-69.6c0-5.2,0.1-10.5,0-15.7c-0.1-3.5,1.3-5,4.8-4.9c5.7,0.1,11.5,0,17.2,0
		c14.8-0.9,29.4,0.7,43,7.1c13,6.1,23.3,15.2,25.9,29.9C294.4,1448.5,285.4,1479.9,247.8,1488.1z"/>
	<path class="st0" d="M292.1,1290.6c-2.1-16.2-11.6-26-26.2-31.6c-16.1-6.2-32.9-7.7-50-7.4c-16.6,0.3-22.8,6.6-23.1,23.4
		c0,2.3,0,4.5,0,6.8v32.2c0,14,0.1,28-0.1,42c0,3.7,1,5.4,5,5.3c11-0.2,22,0.1,32.8-2.1c14.1-2.8,27.4-7.6,38.9-16.5
		C286.6,1329.5,295,1312.6,292.1,1290.6z M234.7,1353c-9.7,2.3-19.6,3.3-29.6,3c-5.9-0.1-6-0.2-6-6.5c-0.1-13,0-25.9,0-38.9
		c0-13.2,0.3-26.4-0.1-39.7c-0.2-5.9,2.5-10.8,9.6-12.1c16.7-3.1,32.8-1.2,47.9,6.6c11.9,6.1,17.3,16.9,18.7,29.7
		C278.4,1323.5,262.4,1346.4,234.7,1353z"/>
</g>
</svg>
