<?xml version="1.0" encoding="utf-8"?>
<!-- Generator: Adobe Illustrator 25.0.0, SVG Export Plug-In . SVG Version: 6.00 Build 0)  -->
<svg version="1.1" id="Layer_1" xmlns="http://www.w3.org/2000/svg" xmlns:xlink="http://www.w3.org/1999/xlink" x="0px" y="0px"
	 viewBox="0 0 1769.3 1335.8" style="enable-background:new 0 0 1769.3 1335.8;" xml:space="preserve">
<style type="text/css">
	.st0{fill:#8B2A4E;}
	.st1{fill:#BB9A6A;}
</style>
<g>
	<g>
		<g>
			<path class="st0" d="M1730.4,139.1c-16,5.8-31.6,12.5-46.9,19.4c-31,12.5-62.1,27.9-93.8,49.3c3.8,4.5,5.6,8.2,6.6,11.5
				c2.7,3.4,5.2,6.7,7.8,10.1c46.2,60.9,63.6,128.6,52.8,194.4c-0.2,1.4-0.4,2.8-0.7,4.2c-0.3,1.8-0.6,3.6-1.1,5.5
				c-1.7,8.5-3.9,17.1-6.7,25.6c-0.9,2.8-1.8,5.6-2.9,8.4c-0.2,0.6-0.4,1.2-0.6,1.7c0,0.2-0.1,0.4-0.2,0.5c-0.2,0.5-0.5,1.2-0.7,1.8
				c-0.2,0.6-0.5,1.3-0.7,1.8c-0.8,2-1.6,4.1-2.4,6.1c-0.1,0.2-0.2,0.3-0.2,0.5c0,0.1,0,0.2-0.1,0.2c0,0.1,0,0.1,0,0.1
				s0,0.1-0.1,0.1c-0.1,0.1-0.1,0.2-0.1,0.2c-0.1,0.1-0.1,0.2-0.1,0.2c-0.1,0.1-0.1,0.2-0.1,0.2c0,0.1,0,0.1,0,0.1
				c0,0.1,0,0.1-0.1,0.2l-0.1,0.1c0,0.1-0.1,0.2-0.1,0.2c0,0.1,0,0.1-0.1,0.2c0,0.1-0.1,0.2-0.1,0.2c0,0.1,0,0.2-0.1,0.2
				c0,0.1-0.1,0.2-0.2,0.3c0,0.1,0,0.2-0.1,0.3l-0.1,0.1c0,0.1,0,0.1-0.1,0.2v0.1l-0.1,0.1v0.1c0,0.1,0,0.1-0.1,0.2v0.1l-0.1,0.1
				c0,0.1,0,0.1-0.1,0.2v0.1c0,0.1,0,0.1-0.1,0.2v0.1l-0.1,0.1c0,0,0,0,0,0.1l-0.1,0.1c0.1,0.1,0,0.2-0.1,0.2c0,0.1-0.1,0.2-0.2,0.3
				c0,0.2-0.1,0.4-0.2,0.5c0,0,0,0,0,0.1c0,0.1,0,0.2-0.2,0.3c0,0.2-0.1,0.2-0.2,0.4v0.1l-0.1,0.1c0,0.1,0,0.1-0.1,0.2
				c0,0.2-0.1,0.2-0.2,0.4v0.1c0,0.1-0.1,0.1-0.1,0.1c0.1,0.1,0,0.2-0.1,0.2c0,0.1,0,0.1-0.1,0.2c-0.1,0.2-0.2,0.5-0.3,0.8v0.1
				c-0.1,0.2-0.2,0.3-0.2,0.5c-0.1,0.2-0.2,0.4-0.2,0.5c0,0.2-0.1,0.2-0.2,0.4c-0.1,0.1-0.2,0.2-0.2,0.3c0,0.2,0,0.2-0.2,0.4
				c0,0.2-0.1,0.4-0.2,0.5c0,0.1-0.1,0.2-0.2,0.4c0,0,0,0,0,0.1c0,0.1-0.1,0.2-0.2,0.3c-0.1,0-0.1,0.1-0.1,0.2
				c0,0.2-0.1,0.2-0.2,0.4c0,0.1-0.1,0.2-0.2,0.4c-0.1,0.1-0.1,0.2-0.1,0.2c-0.1,0.1-0.2,0.2-0.2,0.3c-0.1,0.1-0.1,0.1-0.1,0.2
				c0,0.2-0.1,0.2-0.1,0.3c-0.1,0.1-0.1,0.2-0.2,0.2c-0.2,0.5-0.4,0.9-0.6,1.3c-0.2,0.5-0.4,0.9-0.6,1.4c-0.9,2.1-2,4.2-2.9,6.3
				c-0.2,0.2-0.2,0.3-0.2,0.5c-0.1,0.2-0.2,0.3-0.2,0.4c-0.1,0.1-0.2,0.2-0.2,0.4c-1.6,3.4-3.4,6.7-5,10c-1.7,3.3-3.5,6.7-5.4,10
				c-5.6,10-11.8,19.7-18.6,29.4c-52.5,74.8-151.3,125.6-240.2,142.8c50.1,30.6,74.8,76.9,80.6,133.2
				c8.9,83.9-16.3,158.6-71.3,221.4c-84.2,96.1-191.6,155.5-315.5,184.5c-36.4,8.5-74,10.8-111.1,1.6c-24.4-6.1-46.5-16.3-59.4-39.7
				c-12.6-23.1-10.6-47.9-4.1-72c12.2-45.4,42.8-78.8,78.4-107c67.7-53.8,144.8-86.7,227-108.1c5.9-1.6,11.8-3,17.6-4.4
				c2-0.5,4.1-0.9,6-1.3c1-0.3,2-0.5,3-0.7c3-0.7,5.9-1.4,8.9-2c5.1-1,10.2-1,15.3-1.3c7.1-0.7,10.9,2.4,11.9,9.9
				c1,7.1-1.7,11.5-8.5,13.2c-11.6,3.1-23.1,5.8-34.3,8.9c-4.4,1.2-8.9,2.4-13.2,3.8c-7.9,2.4-15.8,5-23.7,7.7
				c-1.3,0.5-2.7,0.9-4,1.4c-55.7,19.9-108.9,48.3-157.9,83c-30.6,21.8-81.3,65.7-88,108.7c-0.9,5.9-1,14.1,1,22.8
				c0.3,1,0.5,2.1,0.8,3.1c0.2,0.7,0.4,1.4,0.7,2.1c0.2,0.8,0.5,1.6,0.9,2.3c0.2,0.5,0.4,0.9,0.5,1.4c0.1,0.3,0.2,0.6,0.4,0.9
				c0.2,0.4,0.4,0.9,0.6,1.3c0.2,0.5,0.5,0.9,0.7,1.4c0.3,0.5,0.5,1,0.9,1.5c0.5,1,1.2,2,1.8,2.9c0,0.1,0,0.1,0.1,0.1
				c0.5,0.9,1.2,1.7,1.9,2.5c0.5,0.5,0.9,1.2,1.4,1.7c0.3,0.5,0.7,0.9,1.2,1.4c0.1,0.2,0.2,0.4,0.5,0.6c1.4,1.6,2.9,3.1,4.6,4.5
				c0.4,0.4,0.8,0.7,1.3,1.1c9.5,7.3,23.1,12.6,42.6,13.8c31,1.8,109.5-22.2,145.3-39.9c1.7-0.8,3.2-1.6,4.7-2.4
				c0,0,0.2,0.1,0.2-0.1c0.2,0,0.2-0.1,0.3-0.2c21.8-13.2,42.5-28.2,62.6-44.4c74-59.5,130.4-132.8,165.7-221.8
				c9.6-24.1,15.4-48.9,17.1-74.5c-2.1-42.9-10.3-71.2-44.6-105c-7.1-3.8-14.3-3.4-22.1-2.4c-24.4,2.7-49.3,2.4-73.7,1.7
				c-11.2-0.3-21.7-3.1-31.6-8.5c-2.3-1.3-4.4-2.8-6.1-4.7c-0.1-0.1-0.2-0.2-0.2-0.2c-0.3-0.2-0.5-0.5-0.9-0.9
				c-0.2-0.1-0.2-0.2-0.4-0.4c-0.2-0.1-0.2-0.2-0.4-0.4c-0.2-0.2-0.5-0.5-0.7-0.7c-0.2-0.1-0.2-0.2-0.4-0.4
				c-0.2-0.2-0.3-0.3-0.5-0.5c-0.2-0.1-0.2-0.2-0.4-0.4c-0.1-0.1-0.2-0.2-0.2-0.2c-0.5-0.4-0.9-0.9-1.3-1.3
				c-0.2-0.2-0.2-0.3-0.4-0.4c-0.2-0.2-0.2-0.2-0.4-0.5c-0.2-0.1-0.3-0.2-0.4-0.4l-0.2-0.2c-0.2-0.2-0.3-0.2-0.5-0.4
				c-0.2-0.2-0.2-0.2-0.4-0.5c-0.2-0.1-0.3-0.2-0.4-0.4l-0.2-0.2c-0.2-0.2-0.3-0.3-0.5-0.4c-0.2-0.2-0.2-0.2-0.4-0.5
				c-0.2-0.1-0.2-0.2-0.4-0.4c-0.1-0.1-0.2-0.2-0.2-0.2c-0.2-0.2-0.3-0.3-0.5-0.4c-0.2-0.2-0.2-0.2-0.4-0.5
				c-0.2-0.1-0.2-0.2-0.4-0.4c-0.1-0.1-0.2-0.2-0.2-0.2c-0.3-0.2-0.5-0.5-0.9-0.9c-0.2-0.1-0.2-0.2-0.4-0.4
				c-0.2-0.1-0.2-0.2-0.4-0.4l-0.7-0.7c-0.2-0.1-0.2-0.2-0.4-0.4c-0.2-0.1-0.2-0.2-0.4-0.4c-0.2-0.1-0.2-0.2-0.4-0.3
				c-3.2-3.1-5.2-7.2-4.8-12.5c0.4-7.8,5.5-12.2,12.2-14.9c18.7-7.8,38.4-7.1,57.8-4.5c16,2,32,5.5,47.3,10.2
				c13.9,4.5,26.1,3.1,39.7-1c139.2-44.8,222.1-141.3,256.4-280.8c0.4-1.5,0.7-3,1.1-4.5c5-47.2-8.9-91.6-40.1-130.9
				c-11.2-13.9-11.6-14.7-26.5-4.8c-50,33.6-91.1,73.2-135.9,113.3c-94.8,84.9-164.9,176.6-235.2,282.2
				c-63.5,95.4-125.6,191.5-196.3,281.9c-67.5,85.9-137.8,164.4-231.2,223.2c-91.1,57.4-190.2,92-295.5,111
				c-60.4,10.9-121.2,13.2-182.3,9.9c-50.3-3.1-98.9-14.3-143.3-39.1c-10-5.6-19.1-12-27.1-19.1c0,0,0,0,0,0c0,0,0,0,0,0
				c-1.5-1.4-3.1-2.7-4.5-4.1c-0.5-0.5-1-1-1.5-1.5c-0.5-0.4-0.9-0.9-1.3-1.3c-0.1,0-0.1,0-0.1-0.1c-0.2-0.1-0.3-0.2-0.4-0.4
				c-0.2-0.1-0.2-0.2-0.3-0.3c-0.1-0.1-0.2-0.2-0.2-0.2c-0.2-0.2-0.4-0.3-0.5-0.5c-0.1-0.1-0.1-0.1-0.1-0.1
				c-0.2-0.2-0.5-0.5-0.7-0.7c-0.2-0.2-0.5-0.5-0.7-0.7c-0.1-0.1-0.1-0.2-0.1-0.2c-0.1,0-0.1-0.1-0.2-0.2c-0.1-0.1-0.2-0.1-0.2-0.2
				c-0.1-0.1-0.2-0.2-0.2-0.2c-0.1-0.1-0.1-0.1-0.2-0.2c-0.1,0-0.2-0.2-0.2-0.2l-0.2-0.2c-0.1-0.1-0.2-0.2-0.3-0.3
				c-0.1-0.1-0.2-0.2-0.2-0.2l-0.5-0.5c-0.1-0.1-0.2-0.2-0.2-0.2c-0.1-0.1-0.2-0.2-0.2-0.2l-1-1c0,0-0.1,0-0.1-0.1
				c-0.1,0-0.2-0.2-0.2-0.2l-2.3-2.3c-0.2-0.2-0.3-0.3-0.5-0.5c0-0.1-0.1-0.1-0.1-0.1c-0.1,0-0.2-0.2-0.2-0.2
				c-0.1-0.2-0.2-0.2-0.2-0.2l-0.3-0.3c-0.2-0.2-0.3-0.3-0.5-0.5c-0.1-0.2-0.2-0.2-0.2-0.2l-0.1-0.1c-0.1,0-0.1,0-0.1-0.1l-0.1-0.1
				c-0.2-0.2-0.4-0.5-0.6-0.6c-0.2-0.2-0.5-0.4-0.6-0.6l-0.4-0.4c-0.2-0.2-0.5-0.5-0.8-0.8c-0.2-0.1-0.2-0.2-0.3-0.3
				c-0.2-0.2-0.4-0.5-0.6-0.7c0,0-0.1,0-0.1-0.1c-12.8-13.2-21.9-29.3-25.9-49.8c-6.1-32.2,2-61.1,21.4-86.3
				c25.5-32.9,59.8-52.3,101.2-57.4c12.2-1.7,23.7,1.3,34.6,6.4c4.4,2.1,8.2,4.7,11.4,7.8c0.5,0.5,1.1,0.9,1.5,1.4
				c0.2,0.2,0.4,0.4,0.5,0.5c0.1,0.1,0.1,0.1,0.2,0.2c0.5,0.5,1,0.9,1.5,1.5c0,0,0.1,0,0,0.1c0.2,0.1,0.2,0.2,0.3,0.3
				c0,0,0.2,0.1,0.2,0.2c0.1,0,0.2,0.1,0.2,0.2l0.2,0.2c0,0,0.1,0.1,0.2,0.2c0.1,0.1,0.2,0.1,0.2,0.2c0.2,0.2,0.3,0.2,0.4,0.4
				c0.2,0.2,0.4,0.3,0.5,0.5c0.2,0.1,0.2,0.1,0.2,0.2l0.1,0.1c0,0,0,0,0.1,0.1c0,0,0.1,0.1,0.2,0.2c0,0,0.1,0.1,0.2,0.2
				c0.2,0.2,0.3,0.2,0.4,0.4c0.2,0.2,0.4,0.3,0.5,0.5c0.2,0.1,0.2,0.1,0.2,0.2l0.1,0.1c0,0,0,0,0.1,0.1c0,0,0.1,0.1,0.2,0.2
				c0,0,0.1,0.1,0.2,0.2c0.2,0.2,0.3,0.2,0.4,0.4c0.2,0.2,0.4,0.3,0.5,0.5c0.2,0.1,0.2,0.1,0.2,0.2l0.2,0.2c0,0,0.1,0.1,0.2,0.2
				c0.1,0.1,0.2,0.1,0.2,0.2c0.2,0.1,0.3,0.2,0.4,0.4c0.2,0.2,0.4,0.3,0.5,0.5c0.2,0.1,0.2,0.2,0.2,0.2c0.1,0.1,0.2,0.2,0.3,0.2
				c0,0,0.1,0.1,0.1,0.2c0.2,0.2,0.3,0.2,0.4,0.4c0.2,0.1,0.2,0.2,0.3,0.3c0.2,0.2,0.3,0.2,0.4,0.4c0.2,0.1,0.2,0.2,0.3,0.3l0.1,0.1
				c0,0.1,0.1,0.2,0.2,0.2c0.1,0,0.2,0.1,0.2,0.1c0.2,0.2,0.4,0.4,0.5,0.6c0.2,0.2,0.3,0.3,0.5,0.5c0.2,0.2,0.3,0.2,0.5,0.4
				c0.1,0.1,0.2,0.2,0.2,0.2c0.2,0.2,0.4,0.4,0.5,0.5c0,0,0.1,0,0,0.1c0.2,0.1,0.2,0.2,0.3,0.3c0,0,0.2,0.1,0.2,0.2
				c0.2,0.2,0.3,0.2,0.4,0.4c0.1,0.1,0.2,0.2,0.2,0.2c0.2,0.2,0.3,0.2,0.4,0.4c0.3,0.2,0.5,0.5,0.8,0.7c0.5,0.5,0.9,0.9,1.3,1.5
				c10,11.1,13.2,26.7,8.5,42.7c-11.5,38.7-52,53.7-84.2,30.6c-11.8-8.5-23-18.3-39-10.2c-17,8.5-23.4,24.1-24.1,42.2
				c-0.9,19.1,4.5,35.3,14.7,48.7c2.5,2,5.2,4,8.1,5.8c32,20.8,67.9,31,104.9,35.7c171.5,21.5,321-29.9,453.8-137.1
				c78.4-63.5,143.6-139.2,205.1-218.4c82.9-106.3,165.1-213.3,253.4-315.6c113.4-131.1,240.7-246.2,385.4-341.6
				c4.6-3.1,10.6-4.9,13.9-10.7c-28.2-19.6-58.9-34.6-91.1-47c-47.9-18.3-97.8-26.1-148.7-31.2c-62.8-6.1-125.3-4.8-187.8,2.4
				c-90.7,10.2-178,33.6-261.8,69.3C738,227,652.1,276.3,576.4,342.2c-62.8,54.3-116.5,116.1-153.2,191.5
				c-21.1,43.2-32.6,88.6-30.6,137.6c1.2,27.2,9.7,50,25.2,68.6l0.1,0.1c0.2,0.1,0.3,0.2,0.5,0.4c3.7,3,7.6,5.9,11.7,8.5
				c36,23.8,76.1,31,118.9,27.9c81.5-6.1,151.5-41.1,218.4-83.9c116.1-74.4,204.4-174.6,274-292.7c28.9-49.2,50.6-101.6,67.3-156.2
				c3.1-9.8,6.1-17.6,18.6-15.6c3.1,0.5,5.5,1.3,6.9,3c0.2,0.1,0.3,0.3,0.5,0.5c0.2,0.1,0.4,0.2,0.5,0.4c0.2,0.2,0.4,0.3,0.5,0.5
				c0.2,0.1,0.3,0.3,0.5,0.5c0.2,0.1,0.4,0.2,0.5,0.4c0.2,0.2,0.4,0.3,0.5,0.5c0.2,0.2,0.3,0.3,0.5,0.5c0.2,0.1,0.4,0.2,0.5,0.4
				c0.2,0.2,0.4,0.3,0.5,0.5c0.2,0.2,0.3,0.3,0.5,0.5c0.2,0.1,0.4,0.2,0.5,0.4c0.2,0.2,0.4,0.3,0.5,0.5c0.2,0.2,0.3,0.3,0.5,0.5
				c0.2,0.1,0.4,0.2,0.5,0.4c0.2,0.2,0.4,0.3,0.5,0.5c0.1,0,0.2,0.2,0.2,0.2c0.2,0.2,0.4,0.4,0.5,0.6c0.1,0.1,0.2,0.2,0.3,0.3
				c0.2,0,0.2,0.2,0.4,0.4c0.2,0.1,0.3,0.3,0.5,0.5c0.2,0.1,0.5,0.4,0.7,0.7c0.3,0.1,0.5,0.4,0.8,0.8c0.2,0.1,0.5,0.4,0.7,0.7
				c0.3,0.1,0.5,0.4,0.8,0.8c0.2,0.1,0.5,0.4,0.7,0.7c0.2,0.1,0.4,0.2,0.5,0.4c0.2,0.2,0.4,0.3,0.5,0.5c0.2,0.2,0.3,0.3,0.5,0.5
				c0.2,0.1,0.4,0.2,0.5,0.4c1.8,1.6,2.5,3.8,1.8,7.4c-2.7,11.5-5.8,23.1-9.2,34.3c-47.9,161.3-133.8,298.2-265.6,404.1
				C794.7,757.5,702,800.6,599.1,818.7c-38.4,6.7-77.7,6.7-116.1-3.4c-26-6.7-49.1-19.3-67.9-36.1c-1.3-1.1-2.7-2.3-3.9-3.5
				c-0.4-0.4-0.8-0.7-1.2-1.1c-0.5-0.5-1-0.9-1.5-1.5l-1.3-1.3c0-0.1-0.1-0.1-0.2-0.2c-0.3-0.4-0.7-0.7-1.1-1.1
				c-0.2-0.2-0.2-0.2-0.3-0.3c-0.2-0.1-0.2-0.2-0.4-0.4c-0.1-0.2-0.2-0.2-0.2-0.2c-0.1-0.1-0.2-0.2-0.3-0.3
				c-0.2-0.1-0.2-0.2-0.3-0.3c-0.2-0.1-0.2-0.2-0.3-0.3c-0.2-0.1-0.3-0.2-0.4-0.4c-0.1,0-0.2-0.1-0.2-0.2c-0.2-0.1-0.2-0.2-0.3-0.3
				c-0.2-0.1-0.2-0.2-0.3-0.3c-0.2-0.1-0.2-0.2-0.3-0.3c-0.2-0.2-0.2-0.2-0.4-0.4v-0.1l-0.1-0.1c0,0-0.1,0-0.1-0.1
				c-0.1-0.1-0.2-0.2-0.2-0.2c-0.1-0.1-0.1-0.1-0.1-0.1c-0.1-0.1-0.1-0.1-0.1-0.1c-0.1-0.1-0.2-0.2-0.2-0.2s-0.2-0.2-0.2-0.2
				c-0.1,0-0.1-0.1-0.2-0.2c0-0.1-0.1-0.1-0.1-0.1c-0.1-0.1-0.1-0.1-0.1-0.1c-0.1-0.1-0.2-0.2-0.2-0.2l-0.1-0.1
				c-0.1-0.1-0.1-0.1-0.2-0.2c-0.1-0.1-0.2-0.2-0.2-0.2c-0.1-0.1-0.1-0.1-0.1-0.1c-0.1-0.1-0.1-0.1-0.1-0.1
				c-0.1-0.1-0.2-0.2-0.2-0.2c-0.1-0.1-0.2-0.2-0.2-0.2c-0.1-0.1-0.2-0.2-0.2-0.2c0-0.1-0.1-0.1-0.1-0.1c-0.1-0.2-0.2-0.2-0.3-0.3
				l-0.1-0.1c-0.1-0.1-0.1-0.1-0.2-0.2c-0.1,0-0.1-0.1-0.2-0.2c0,0-0.1,0-0.1-0.1c0,0-0.1,0-0.1-0.1c-0.1-0.1-0.2-0.2-0.2-0.2
				c-0.1,0-0.1-0.1-0.2-0.2c-0.1-0.1-0.2-0.2-0.2-0.2c-0.1,0-0.1-0.1-0.2-0.2l-0.1-0.1c0-0.1-0.1-0.2-0.2-0.2
				c-0.1,0-0.2-0.1-0.2-0.2l-0.1-0.2c0,0,0,0-0.1-0.1c0,0,0,0-0.1-0.1s-0.2-0.2-0.4-0.4c0,0,0,0-0.1-0.1s-0.2-0.1-0.2-0.2
				c0,0-0.1-0.1-0.2-0.2l-0.2-0.2c-0.1-0.1-0.2-0.2-0.2-0.2l-0.1-0.1c0-0.1,0-0.1-0.1-0.1c-0.2-0.2-0.3-0.3-0.5-0.5
				c0-0.1,0-0.1-0.1-0.1c-0.1-0.2-0.2-0.2-0.3-0.3c-0.2-0.2-0.3-0.3-0.5-0.5c-0.1-0.1-0.1-0.1-0.2-0.2c-0.2-0.2-0.4-0.4-0.5-0.5
				c-0.1-0.1-0.1-0.1-0.1-0.1c-0.2-0.2-0.4-0.3-0.5-0.5c-0.1-0.1-0.2-0.2-0.2-0.2c-0.1-0.1-0.2-0.2-0.2-0.2
				c-0.2-0.1-0.2-0.2-0.3-0.3c-0.1-0.1-0.2-0.1-0.2-0.2c-0.2-0.1-0.2-0.2-0.3-0.3c-0.2-0.2-0.5-0.4-0.6-0.6
				c-0.2-0.2-0.4-0.4-0.5-0.5c-0.2-0.2-0.4-0.4-0.6-0.6c-35.6-36.8-53.7-89.6-45.5-143.6c11.6-76.5,47.9-140.7,94.1-200.4
				c72-92.7,163.4-162,265.9-217.3C808,137.6,917.4,99.9,1033.1,83.3c120.9-17.3,241.5-18.6,360.7,13.2
				c49.9,13.2,95.4,35,136.9,65.3c15.3,11.2,26.5,10.5,42.8,0.6c41.5-25.1,85.3-45.4,130.8-62.1c5.2-1.9,10.3-4.5,14.3-0.6
				c0.2,0.1,0.3,0.2,0.4,0.4c0.4,0.2,0.7,0.6,1.1,1.1c0,0,0,0,0,0.1c0.2,0.1,0.2,0.2,0.3,0.3c0.3,0.2,0.7,0.5,1,0.9l0.1,0.1
				c0,0,0,0.1,0.1,0.1c0,0,0.1,0.1,0.2,0.2c0.5,0.3,0.9,0.8,1.3,1.3c0,0,0,0,0,0.1c0.2,0.1,0.2,0.2,0.3,0.3c0.3,0.2,0.7,0.5,1,0.9
				c0.2,0.2,0.5,0.5,0.6,0.7c0.1,0.1,0.2,0.2,0.2,0.2c0.2,0.1,0.3,0.2,0.4,0.4c0.3,0.2,0.6,0.5,0.9,0.9c0.2,0.2,0.5,0.4,0.7,0.7
				c0.2,0.2,0.5,0.4,0.7,0.7c0.1,0.1,0.2,0.2,0.2,0.2c0,0,0,0.1,0.1,0.1c0.2,0.1,0.3,0.2,0.4,0.4c0.4,0.2,0.7,0.6,1.1,1.1
				c0,0,0,0,0,0.1c0.2,0.1,0.2,0.2,0.3,0.3c0.3,0.2,0.7,0.5,1,0.9l0.1,0.1c0,0,0,0.1,0.1,0.1c0,0,0.1,0.1,0.2,0.2
				c0.5,0.3,0.9,0.8,1.3,1.3c0,0,0,0,0,0.1c0.2,0.1,0.2,0.2,0.3,0.3c0.3,0.2,0.7,0.5,1,0.9c1,0.9,2,2.3,2.8,4.2
				C1740.5,127.8,1742.6,135,1730.4,139.1z"/>
		</g>
	</g>
	<g>
		<path class="st1" d="M1574.2,192c11.2,13.6,20.7,25.1,29.9,37.4c76.4,100.9,74.4,220.4-4.8,318.9c-58.8,73-136.9,112.1-227.5,128
			c-9.2,1.7-18.3,3.1-27.2,6.8c2.7,7.1,9.8,9.2,15.3,12.6c50.6,30.6,75.7,77.1,81.5,133.8c8.8,83.9-16.3,158.6-71.3,221.4
			c-84.2,96.1-191.5,155.5-315.5,184.4c-36.3,8.5-74,10.9-111.1,1.7c-24.5-6.1-46.5-16.3-59.4-39.7c-12.6-23.1-10.5-47.9-4.1-72
			c12.2-45.5,42.8-78.8,78.5-107c77.4-61.5,167.1-95.8,262.5-116.5c5.1-1,10.2-1,15.3-1.4c7.1-0.7,10.9,2.4,11.9,9.8
			c1,7.1-1.7,11.5-8.5,13.2c-11.5,3.1-23.1,5.8-34.3,8.8c-70.6,19.4-139.9,40.8-200.7,83.9c-31.9,22.8-60.1,49.6-82.5,82.2
			c-10.2,14.9-17.3,31.2-19.4,49.2c-3.1,27.2,10.9,48.2,38.7,58.4c30.2,11.2,60.1,5.8,90-2.4c60.8-16.6,113.4-49.2,162-88.3
			c74-59.4,130.4-132.8,165.7-221.8c12.9-32.6,19-66.6,17.3-101.9c-2-43.1-23.1-73.4-60.5-93.4c-7.1-3.7-14.3-3.4-22.1-2.4
			c-24.5,2.7-49.2,2.4-73.7,1.7c-11.2-0.3-21.7-3.1-31.6-8.5c-6.1-3.4-10.9-8.5-10.2-16.3c0.3-7.8,5.4-12.2,12.2-14.9
			c18.7-7.8,38.4-7.1,57.7-4.4c16,2,31.9,5.4,47.2,10.2c13.9,4.4,26.2,3.1,39.7-1c139.2-44.8,222.1-141.3,256.4-280.9
			c13.9-56.4,1-109.7-35.7-155.9c-11.2-13.9-11.5-14.6-26.5-4.8c-49.9,33.6-95.8,73-140.6,113.1c-94.8,84.9-173.2,183.7-243.5,289.3
			c-63.5,95.4-125.7,191.5-196.3,281.9c-67.6,85.9-143.7,162.3-237,221.1c-91,57.4-190.2,92-295.5,111.1
			c-60.5,10.9-121.2,13.2-182.4,9.8c-50.3-3.1-98.8-14.3-143.3-39.1c-29.9-17-52.6-39.4-59.4-75.1c-6.1-32.3,2-61.1,21.4-86.3
			c25.5-32.9,59.8-52.3,101.2-57.4c12.2-1.7,23.8,1.4,34.6,6.5c20.7,9.8,29.2,31.2,22.8,53.3c-11.5,38.7-52,53.7-84.2,30.6
			c-11.9-8.5-23.1-18.3-39.1-10.2c-17,8.5-23.4,24.1-24.1,42.1c-1.4,30.9,13.2,54,38.4,70.3c31.9,20.7,67.9,30.9,104.9,35.7
			c171.5,21.4,320.9-29.9,453.7-137.2c78.5-63.5,143.7-139.2,205.1-218.4c82.9-106.3,165.1-213.3,253.4-315.5
			c113.4-131.1,240.8-246.2,385.5-341.6c5.4-3.7,12.6-5.4,15.3-13.9c-32.6-25.8-69.3-44.5-108-59.4c-47.9-18.3-97.8-26.2-148.8-31.2
			c-62.8-6.1-125.3-4.8-187.8,2.4c-90.7,10.2-178,33.6-261.8,69.3c-91.7,39.1-177.6,88.3-253.4,154.2
			C497.9,380.8,444.3,442.6,407.6,518c-21.1,43.1-32.6,88.6-30.6,137.5c1.7,40.8,20,71.7,53,93.4c36,23.8,76.1,30.9,118.9,27.8
			c81.5-6.1,151.5-41.1,218.4-83.9c116.1-74.4,204.4-174.6,274.1-292.7c28.9-49.2,50.6-101.5,67.2-156.2c3.1-9.8,6.1-17.7,18.7-15.6
			c6.1,1,9.5,3.4,8.2,9.8c-2.7,11.5-5.8,23.1-9.2,34.3c-47.9,161.3-133.8,298.2-265.6,404.1c-81.5,65.2-174.2,108.3-277.1,126.3
			c-38.4,6.8-77.8,6.8-116.1-3.4c-83.2-21.4-135.5-103.2-122.6-188.5c11.5-76.4,47.9-140.6,94.1-200.4
			c72-92.7,163.4-162,265.9-217.4c103.2-55.7,212.6-93.4,328.4-110c120.9-17.3,241.5-18.7,360.7,13.2c49.9,13.2,95.4,35,136.9,65.2
			c15.3,11.2,26.5,10.5,42.8,0.7c41.4-25.1,85.2-45.5,130.8-62.1c6.5-2.4,12.9-5.8,17,3.4c3.7,8.5,5.8,15.6-6.5,19.7
			c-16,5.8-31.6,12.6-46.9,19.4C1637,155.3,1605.7,170.6,1574.2,192z"/>
	</g>
</g>
</svg>
